<svg viewBox="0 0 2132.33349609375 400" xmlns="http://www.w3.org/2000/svg"><g><g><g><g><g><line x1="30.78125" y1="376" x2="25.78125" y2="376" style="visibility: inherit;" fill="rgb(0, 0, 0)" stroke="rgb(204, 204, 204)" stroke-width="1px"></line><line x1="30.78125" y1="338.40000000000003" x2="25.78125" y2="338.40000000000003" style="visibility: inherit;" fill="rgb(0, 0, 0)" stroke="rgb(204, 204, 204)" stroke-width="1px"></line><line x1="30.78125" y1="300.8" x2="25.78125" y2="300.8" style="visibility: inherit;" fill="rgb(0, 0, 0)" stroke="rgb(204, 204, 204)" stroke-width="1px"></line><line x1="30.78125" y1="263.2" x2="25.78125" y2="263.2" style="visibility: inherit;" fill="rgb(0, 0, 0)" stroke="rgb(204, 204, 204)" stroke-width="1px"></line><line x1="30.78125" y1="225.6" x2="25.78125" y2="225.6" style="visibility: inherit;" fill="rgb(0, 0, 0)" stroke="rgb(204, 204, 204)" stroke-width="1px"></line><line x1="30.78125" y1="188" x2="25.78125" y2="188" style="visibility: inherit;" fill="rgb(0, 0, 0)" stroke="rgb(204, 204, 204)" stroke-width="1px"></line><line x1="30.78125" y1="150.4" x2="25.78125" y2="150.4" style="visibility: inherit;" fill="rgb(0, 0, 0)" stroke="rgb(204, 204, 204)" stroke-width="1px"></line><line x1="30.78125" y1="112.80000000000001" x2="25.78125" y2="112.80000000000001" style="visibility: inherit;" fill="rgb(0, 0, 0)" stroke="rgb(204, 204, 204)" stroke-width="1px"></line><line x1="30.78125" y1="75.19999999999999" x2="25.78125" y2="75.19999999999999" style="visibility: inherit;" fill="rgb(0, 0, 0)" stroke="rgb(204, 204, 204)" stroke-width="1px"></line><line x1="30.78125" y1="37.599999999999994" x2="25.78125" y2="37.599999999999994" style="visibility: inherit;" fill="rgb(0, 0, 0)" stroke="rgb(204, 204, 204)" stroke-width="1px"></line><line x1="30.78125" y1="0" x2="25.78125" y2="0" style="visibility: inherit;" fill="rgb(0, 0, 0)" stroke="rgb(204, 204, 204)" stroke-width="1px"></line></g><g transform="translate(20.78125, 0)"><text x="0" y="376" dx="0em" dy="0.3em" style="text-anchor: end; visibility: hidden; font-family: Roboto, sans-serif; font-size: 12px; font-weight: 200;" fill="rgb(50, 49, 63)" stroke="none" stroke-width="1px">3</text><text x="0" y="338.40000000000003" dx="0em" dy="0.3em" style="text-anchor: end; visibility: inherit; font-family: Roboto, sans-serif; font-size: 12px; font-weight: 200;" fill="rgb(50, 49, 63)" stroke="none" stroke-width="1px">4</text><text x="0" y="300.8" dx="0em" dy="0.3em" style="text-anchor: end; visibility: inherit; font-family: Roboto, sans-serif; font-size: 12px; font-weight: 200;" fill="rgb(50, 49, 63)" stroke="none" stroke-width="1px">5</text><text x="0" y="263.2" dx="0em" dy="0.3em" style="text-anchor: end; visibility: inherit; font-family: Roboto, sans-serif; font-size: 12px; font-weight: 200;" fill="rgb(50, 49, 63)" stroke="none" stroke-width="1px">6</text><text x="0" y="225.6" dx="0em" dy="0.3em" style="text-anchor: end; visibility: inherit; font-family: Roboto, sans-serif; font-size: 12px; font-weight: 200;" fill="rgb(50, 49, 63)" stroke="none" stroke-width="1px">7</text><text x="0" y="188" dx="0em" dy="0.3em" style="text-anchor: end; visibility: inherit; font-family: Roboto, sans-serif; font-size: 12px; font-weight: 200;" fill="rgb(50, 49, 63)" stroke="none" stroke-width="1px">8</text><text x="0" y="150.4" dx="0em" dy="0.3em" style="text-anchor: end; visibility: inherit; font-family: Roboto, sans-serif; font-size: 12px; font-weight: 200;" fill="rgb(50, 49, 63)" stroke="none" stroke-width="1px">9</text><text x="0" y="112.80000000000001" dx="0em" dy="0.3em" style="text-anchor: end; visibility: inherit; font-family: Roboto, sans-serif; font-size: 12px; font-weight: 200;" fill="rgb(50, 49, 63)" stroke="none" stroke-width="1px">10</text><text x="0" y="75.19999999999999" dx="0em" dy="0.3em" style="text-anchor: end; visibility: inherit; font-family: Roboto, sans-serif; font-size: 12px; font-weight: 200;" fill="rgb(50, 49, 63)" stroke="none" stroke-width="1px">11</text><text x="0" y="37.599999999999994" dx="0em" dy="0.3em" style="text-anchor: end; visibility: inherit; font-family: Roboto, sans-serif; font-size: 12px; font-weight: 200;" fill="rgb(50, 49, 63)" stroke="none" stroke-width="1px">12</text><text x="0" y="0" dx="0em" dy="0.3em" style="text-anchor: end; visibility: hidden; font-family: Roboto, sans-serif; font-size: 12px; font-weight: 200;" fill="rgb(50, 49, 63)" stroke="none" stroke-width="1px">13</text></g><line x1="30.78125" y1="0" x2="30.78125" y2="376" fill="rgb(0, 0, 0)" stroke="rgb(204, 204, 204)" stroke-width="1px"></line></g></g><g transform="translate(30, 0)" clip-path="url(#clip_0)"><clipPath id="clip_0"><rect width="2101" height="376"></rect></clipPath><g><g><g><line x1="0" y1="0" x2="0" y2="376" fill="rgb(0, 0, 0)" stroke="rgb(60, 60, 60)" stroke-width="1px" opacity="0.25"></line><line x1="175.12906249999997" y1="0" x2="175.12906249999997" y2="376" fill="rgb(0, 0, 0)" stroke="rgb(60, 60, 60)" stroke-width="1px" opacity="0.25"></line><line x1="350.25812499999995" y1="0" x2="350.25812499999995" y2="376" fill="rgb(0, 0, 0)" stroke="rgb(60, 60, 60)" stroke-width="1px" opacity="0.25"></line><line x1="525.3871875" y1="0" x2="525.3871875" y2="376" fill="rgb(0, 0, 0)" stroke="rgb(60, 60, 60)" stroke-width="1px" opacity="0.25"></line><line x1="700.5162499999999" y1="0" x2="700.5162499999999" y2="376" fill="rgb(0, 0, 0)" stroke="rgb(60, 60, 60)" stroke-width="1px" opacity="0.25"></line><line x1="875.6453125" y1="0" x2="875.6453125" y2="376" fill="rgb(0, 0, 0)" stroke="rgb(60, 60, 60)" stroke-width="1px" opacity="0.25"></line><line x1="1050.774375" y1="0" x2="1050.774375" y2="376" fill="rgb(0, 0, 0)" stroke="rgb(60, 60, 60)" stroke-width="1px" opacity="0.25"></line><line x1="1225.9034375" y1="0" x2="1225.9034375" y2="376" fill="rgb(0, 0, 0)" stroke="rgb(60, 60, 60)" stroke-width="1px" opacity="0.25"></line><line x1="1401.0324999999998" y1="0" x2="1401.0324999999998" y2="376" fill="rgb(0, 0, 0)" stroke="rgb(60, 60, 60)" stroke-width="1px" opacity="0.25"></line><line x1="1576.1615625" y1="0" x2="1576.1615625" y2="376" fill="rgb(0, 0, 0)" stroke="rgb(60, 60, 60)" stroke-width="1px" opacity="0.25"></line><line x1="1751.290625" y1="0" x2="1751.290625" y2="376" fill="rgb(0, 0, 0)" stroke="rgb(60, 60, 60)" stroke-width="1px" opacity="0.25"></line><line x1="1926.4196874999998" y1="0" x2="1926.4196874999998" y2="376" fill="rgb(0, 0, 0)" stroke="rgb(60, 60, 60)" stroke-width="1px" opacity="0.25"></line><line x1="2101.54875" y1="0" x2="2101.54875" y2="376" fill="rgb(0, 0, 0)" stroke="rgb(60, 60, 60)" stroke-width="1px" opacity="0.25"></line></g><g><line x1="0" y1="376" x2="2101.54875" y2="376" fill="rgb(0, 0, 0)" stroke="rgb(60, 60, 60)" stroke-width="1px" opacity="0.25"></line><line x1="0" y1="338.40000000000003" x2="2101.54875" y2="338.40000000000003" fill="rgb(0, 0, 0)" stroke="rgb(60, 60, 60)" stroke-width="1px" opacity="0.25"></line><line x1="0" y1="300.8" x2="2101.54875" y2="300.8" fill="rgb(0, 0, 0)" stroke="rgb(60, 60, 60)" stroke-width="1px" opacity="0.25"></line><line x1="0" y1="263.2" x2="2101.54875" y2="263.2" fill="rgb(0, 0, 0)" stroke="rgb(60, 60, 60)" stroke-width="1px" opacity="0.25"></line><line x1="0" y1="225.6" x2="2101.54875" y2="225.6" fill="rgb(0, 0, 0)" stroke="rgb(60, 60, 60)" stroke-width="1px" opacity="0.25"></line><line x1="0" y1="188" x2="2101.54875" y2="188" fill="rgb(0, 0, 0)" stroke="rgb(60, 60, 60)" stroke-width="1px" opacity="0.25"></line><line x1="0" y1="150.4" x2="2101.54875" y2="150.4" fill="rgb(0, 0, 0)" stroke="rgb(60, 60, 60)" stroke-width="1px" opacity="0.25"></line><line x1="0" y1="112.80000000000001" x2="2101.54875" y2="112.80000000000001" fill="rgb(0, 0, 0)" stroke="rgb(60, 60, 60)" stroke-width="1px" opacity="0.25"></line><line x1="0" y1="75.19999999999999" x2="2101.54875" y2="75.19999999999999" fill="rgb(0, 0, 0)" stroke="rgb(60, 60, 60)" stroke-width="1px" opacity="0.25"></line><line x1="0" y1="37.599999999999994" x2="2101.54875" y2="37.599999999999994" fill="rgb(0, 0, 0)" stroke="rgb(60, 60, 60)" stroke-width="1px" opacity="0.25"></line><line x1="0" y1="0" x2="2101.54875" y2="0" fill="rgb(0, 0, 0)" stroke="rgb(60, 60, 60)" stroke-width="1px" opacity="0.25"></line></g></g></g><g><g><line x1="0" y1="488.8" x2="2101.54875" y2="488.8" fill="rgb(0, 0, 0)" stroke="rgb(153, 153, 153)" stroke-width="1.5px"></line></g></g><g><g><line x1="175.12906249999997" y1="0" x2="175.12906249999997" y2="376" fill="rgb(0, 0, 0)" stroke="rgb(153, 153, 153)" stroke-width="1.5px"></line></g></g><g><g><g><g><g><path stroke="rgb(51, 187, 238)" stroke-width="2px" d="M175.12906249999997,243.80762329101563L192.64196875,231.0990019057343L210.154875,251.08300314653158L227.66778125,246.4572132505525L245.1806875,265.06030837752036L262.69359375,258.9122842096073L280.2065,259.07559423161587L297.71940624999996,256.81542647078055L315.2323125,255.86232137974653L332.74521875,250.027216959009L350.25812499999995,256.63861937062006L367.77103124999996,256.0783003423206L385.2839375,256.21618423797906L402.79684375,257.7115964683792L420.30975,246.92241883546163L437.82265625,252.2436330193516L455.3355625,253.04815300165257L472.84846875,255.41833042405287L490.361375,253.39486426942904L507.87428124999997,258.72973023069767L525.3871875,260.67443238570416L542.90009375,262.4187804768969L560.413,262.4060204017657L577.92590625,263.58596963602974L595.4388124999999,261.6212905287068L612.95171875,263.4750396088421L630.464625,263.7960813788462L647.97753125,264.5088922960132L665.4904375,263.26019292966953L683.00334375,264.37510617663105L700.5162499999999,265.9972811725577L718.02915625,266.42537782506236L735.5420624999999,267.9985926968239L753.05496875,266.8805859917169L770.567875,267.1180789793531L788.08078125,268.5419541287968L805.5936875,268.2919355511971L823.10659375,269.05340552523575L840.6195,272.0431683353855L858.1324062499999,274.17053170439345L875.6453125,275.8198228391907L893.15821875,276.9186446711653L910.671125,276.3564238568656L928.18403125,278.17151121956465L945.6969375,278.08028298856124L963.2098437499999,281.5504537577518L980.72275,282.76291682290446L998.2356562499999,283.485092401873L1015.7485624999999,283.26909093453247L1033.26146875,283.92606937214265L1050.774375,284.7287697853063L1068.28728125,284.1130470313297L1085.8001875,284.8618966049847L1103.31309375,284.8224112103625L1120.826,283.8393795061046L1138.3389062499998,282.5012335780032L1155.8518125,282.46697329482464L1173.36471875,283.16729155672544L1190.8776249999999,284.5990143489572L1208.3905312499999,283.85209129087167L1225.9034375,284.192146885797L1243.41634375,284.39112229928355L1260.92925,284.1141532720933L1278.44215625,285.51771054448125L1295.9550625,286.10155047187055L1313.46796875,286.23878264321485L1330.980875,286.8015934801829L1348.49378125,287.30767556979754L1366.0066875,281.52155024342704L1383.51959375,279.29470770414605L1401.0324999999998,279.02488477900044L1418.54540625,279.3264448523519L1436.0583125,279.18658245823525L1453.5712187499998,276.3419589835015L1471.0841249999999,277.13845026443596L1488.59703125,276.10347697374846L1506.1099375,276.09598247558824L1523.62284375,276.61797341277935L1541.13575,276.8913227430715L1558.64865625,276.73431660653387L1576.1615625,277.1203463837149L1593.67446875,275.3593794758475L1611.187375,276.4450320121643L1628.70028125,276.8862428832576L1646.2131875,271.23863380473944L1663.7260937499998,271.06149163281555L1681.239,271.53834855680725L1698.75190625,271.8307403708901L1716.2648124999998,272.8707858865987L1733.7777187499998,272.7605352075294L1751.290625,273.230879036176L1768.8035312499999,273.62636857546545L1786.3164375,273.2115788123149L1803.82934375,272.76553273637904L1821.34225,269.9181230335271L1838.85515625,269.82514253480076L1856.3680625,271.37761624530265L1873.88096875,271.3602287892668L1891.393875,271.593933938012L1908.90678125,271.8612965082794" style="fill: none;" fill="none"></path></g><g><path stroke="rgb(204, 51, 17)" stroke-width="2px" d="M175.12906249999997,300.41457862854L192.64196875,330.39023769220046L210.154875,320.95972602229807L227.66778125,323.43439787215993L245.1806875,319.84768862744096L262.69359375,329.3570898727982L280.2065,334.2130007897383L297.71940624999996,332.25561723416894L315.2323125,336.84749796341106L332.74521875,330.4352803867476L350.25812499999995,323.7073103513199L367.77103124999996,320.2607414593796L385.2839375,311.91236370830285L402.79684375,313.0926168127716L420.30975,308.5976618815286L437.82265625,308.4506338491235L455.3355625,311.6857523033841L472.84846875,309.84800132074247L490.361375,308.7466558140198L507.87428124999997,303.30074391985136L525.3871875,306.0137227698119L542.90009375,307.03382190056243L560.413,308.72684848432436L577.92590625,306.48283712928946L595.4388124999999,303.8484314772703L612.95171875,303.4899172890087L630.464625,300.9833722152596L647.97753125,301.26241250447066L665.4904375,302.2925953056352L683.00334375,302.5430370053613L700.5162499999999,303.04957024764775L718.02915625,302.63691682818967L735.5420624999999,301.3003337659207L753.05496875,300.6185138593866L770.567875,300.7170186606785L788.08078125,302.6147910716238L805.5936875,305.2495200145377L823.10659375,305.07982027032523L840.6195,305.5636135217493L858.1324062499999,303.3182923241214L875.6453125,304.9607477750968L893.15821875,305.7433369008732L910.671125,305.7157546504148L928.18403125,305.1666672703425L945.6969375,303.1146360783976L963.2098437499999,303.57694198248294L980.72275,303.25110344569504L998.2356562499999,301.61850334313897L1015.7485624999999,300.4445399333554L1033.26146875,302.5573766537873L1050.774375,301.618129809117L1068.28728125,300.4759850103739L1085.8001875,299.9687963916046L1103.31309375,300.98032437660305L1120.826,300.0768705341068L1138.3389062499998,300.4419562967351L1155.8518125,300.6432881509856L1173.36471875,300.82126209960836L1190.8776249999999,301.91181892215144L1208.3905312499999,302.24759519094454L1225.9034375,303.2987297349044L1243.41634375,303.12666685298143L1260.92925,303.61584721410793L1278.44215625,303.8601898892672L1295.9550625,304.1349725839384L1313.46796875,304.82046026538745L1330.980875,305.91766317672125L1348.49378125,306.7456411853259L1366.0066875,306.6131649020457L1383.51959375,306.2848254337479L1401.0324999999998,306.1140726116218L1418.54540625,305.95110575268853L1436.0583125,306.25697997441324L1453.5712187499998,305.83346500380964L1471.0841249999999,305.17291845595815L1488.59703125,306.30883720069727L1506.1099375,306.85780812153143L1523.62284375,307.20888297924836L1541.13575,307.682368398705L1558.64865625,307.4113439675169L1576.1615625,308.20253491320943L1593.67446875,308.00301206124357L1611.187375,309.03906633886993L1628.70028125,309.1683405901767L1646.2131875,308.84106627953304L1663.7260937499998,308.7071573817912L1681.239,308.43442730848716L1698.75190625,308.07133671221675L1716.2648124999998,308.1975757083639L1733.7777187499998,307.7595859216098L1751.290625,308.10905183554917L1768.8035312499999,308.2353504205446L1786.3164375,307.47126480501515L1803.82934375,308.1372401902609L1821.34225,308.6788194103147L1838.85515625,308.6545364185474L1856.3680625,309.0057685999586L1873.88096875,308.8066616345006L1891.393875,309.6992947921196L1908.90678125,310.0759718041067L1926.4196874999998,310.04673720889406L1943.93259375,310.274129033334L1961.4455,310.45786735685084L1978.9584062499998,310.71626711667136L1996.4713124999998,311.088185249691L2013.98421875,311.21914090633544" style="fill: none;" fill="none"></path></g><g><path stroke="rgb(0, 119, 187)" stroke-width="2px" d="M175.12906249999997,192.50552330017084L192.64196875,204.49679325002208" style="fill: none;" fill="none"></path></g><g><path stroke="rgb(255, 112, 67)" stroke-width="2px" d="M175.12906249999997,104.95391311645508L192.64196875,127.88569608557114L210.154875,145.80516252347743L227.66778125,170.92958109748852L245.1806875,165.36799991575035L262.69359375,168.4800010887714L280.2065,191.57589743596986L297.71940624999996,196.02181673395404L315.2323125,196.59711113710472L332.74521875,202.1292092443164L350.25812499999995,216.4342530501788L367.77103124999996,224.71406296857228L385.2839375,218.9978041724731L402.79684375,222.30862056673092L420.30975,228.43742753004793L437.82265625,234.25629418141278L455.3355625,236.99892073304804L472.84846875,241.58862429095583L490.361375,242.5958188462858L507.87428124999997,245.97354558780086L525.3871875,251.0425472918077L542.90009375,247.88819879104597L560.413,249.96298930290143L577.92590625,248.472529999704L595.4388124999999,248.5283766902123L612.95171875,246.83142019337942L630.464625,243.7248939199801L647.97753125,246.262090413783L665.4904375,249.23995333532446L683.00334375,251.0683048994103L700.5162499999999,247.96385660418807L718.02915625,248.83556768870199L735.5420624999999,248.1683259354307L753.05496875,250.99675711375914L770.567875,249.840097211363L788.08078125,250.50509422909505L805.5936875,252.6525680821177L823.10659375,254.68144578075234L840.6195,253.31481206507917L858.1324062499999,256.3996666717124L875.6453125,259.15688827212887L893.15821875,258.3815394710411L910.671125,256.73274062426935L928.18403125,256.35796048295714L945.6969375,258.49926216718575L963.2098437499999,258.6086419111549L980.72275,258.4941088143309L998.2356562499999,259.55009070096145L1015.7485624999999,258.97552629309706L1033.26146875,259.07088447931136L1050.774375,258.92852783048903L1068.28728125,261.59136985058905L1085.8001875,262.4692135724387L1103.31309375,264.4996263349948L1120.826,263.57476229705117L1138.3389062499998,264.89222002589383L1155.8518125,264.3384585010315L1173.36471875,264.48957178536637L1190.8776249999999,265.59505842470094L1208.3905312499999,267.5123941608624L1225.9034375,268.41682364176376L1243.41634375,270.8501154179993L1260.92925,271.65938224801704L1278.44215625,269.7965258433666L1295.9550625,270.7504474213268L1313.46796875,271.9753359054752L1330.980875,272.05152596899916L1348.49378125,270.72853948111174L1366.0066875,271.05538099439474L1383.51959375,271.9016216672731L1401.0324999999998,272.2477765788063L1418.54540625,272.99443804076503L1436.0583125,273.3742707315131L1453.5712187499998,273.51126115560004L1471.0841249999999,275.00088457904656L1488.59703125,274.839296922939L1506.1099375,274.4445250914921L1523.62284375,274.7807230405174L1541.13575,274.88972101408075L1558.64865625,274.6199108123556L1576.1615625,274.90256598186045L1593.67446875,275.581986817348L1611.187375,276.02407658184427L1628.70028125,275.2657919279127L1646.2131875,275.6044453161543L1663.7260937499998,276.6057867422873L1681.239,275.4884109540728L1698.75190625,275.9195644910084L1716.2648124999998,275.4047599446458L1733.7777187499998,275.8575925960382L1751.290625,275.22098771037656L1768.8035312499999,274.87775005869946L1786.3164375,274.2946272366429L1803.82934375,274.069964521291L1821.34225,273.4411101744829L1838.85515625,273.4489842420811L1856.3680625,273.81138369140393L1873.88096875,274.84461924683234L1891.393875,274.5078777384183L1908.90678125,274.0852736850718L1926.4196874999998,273.0198200535673" style="fill: none;" fill="none"></path></g><g><path stroke="rgb(187, 187, 187)" stroke-width="2px" d="M175.12906249999997,248.1045597076416L192.64196875,292.67232603556596L210.154875,323.22727769786144L227.66778125,329.60346627015946L245.1806875,308.46984955773814L262.69359375,311.0927874771432L280.2065,313.86824171075L297.71940624999996,302.31112687096277L315.2323125,287.990637338862L332.74521875,293.1165110448753L350.25812499999995,300.86391000122694L367.77103124999996,295.5356443235963L385.2839375,293.94142508922005L402.79684375,290.5070261739228L420.30975,293.862090361521L437.82265625,291.48356250681155L455.3355625,295.84540048979585L472.84846875,285.5025354434923L490.361375,289.56968268280957L507.87428124999997,293.7737710273277L525.3871875,294.60232117947976L542.90009375,293.5307852732239L560.413,292.47395783672624L577.92590625,290.15479127484156L595.4388124999999,289.9723205919102L612.95171875,291.9476928595954L630.464625,291.0218862809256L647.97753125,294.3314405778423L665.4904375,294.8681756527383L683.00334375,296.9131486216619L700.5162499999999,295.39805122716126L718.02915625,296.38616511849654L735.5420624999999,295.1033203903826L753.05496875,292.6529270341154L770.567875,292.1355815457557L788.08078125,293.35606895122226L805.5936875,290.7299620290458L823.10659375,287.64586661273586L840.6195,285.67461231718255L858.1324062499999,285.94022336741983L875.6453125,288.1960480731493L893.15821875,288.0052427678906L910.671125,288.2707111489712L928.18403125,289.79021607741305L945.6969375,292.267470272553L963.2098437499999,289.80102519313266L980.72275,290.0548744583177L998.2356562499999,291.3008205290512L1015.7485624999999,290.9848309582437L1033.26146875,290.27754949783906" style="fill: none;" fill="none"></path></g><g><path stroke="rgb(0, 153, 136)" stroke-width="2px" d="M175.12906249999997,330.4252899169922L192.64196875,346.6823393592223L210.154875,331.711761628507L227.66778125,329.29478003640065L245.1806875,316.0791348092102L262.69359375,305.9344815729677L280.2065,295.9968378583551L297.71940624999996,285.0390480408761L315.2323125,285.5314552680199L332.74521875,290.4193544777021L350.25812499999995,295.32369385367554L367.77103124999996,295.1983694803366L385.2839375,297.0649471226312L402.79684375,298.3811624760534L420.30975,296.74092688460235L437.82265625,294.37585549688487L455.3355625,289.2086506011853L472.84846875,291.5287437204458L490.361375,296.58753006725607L507.87428124999997,302.6505221697917L525.3871875,298.1842125775738L542.90009375,296.6322079909492L560.413,302.72413624207417L577.92590625,304.5346290764549L595.4388124999999,299.6382841596194L612.95171875,301.8972329134054L630.464625,304.0945551518494L647.97753125,301.38738180068054L665.4904375,302.3113146055678L683.00334375,304.68531997351556L700.5162499999999,305.10429888929417L718.02915625,302.8556338250641L735.5420624999999,301.56971933623777L753.05496875,304.0129028697953L770.567875,302.9086589113856L788.08078125,305.5261992583015L805.5936875,306.26969255545697L823.10659375,301.6727901857036L840.6195,302.5327281424047L858.1324062499999,301.41683865938L875.6453125,302.7648862492707L893.15821875,302.9308325710547L910.671125,302.0758071296131L928.18403125,304.1433684912539L945.6969375,305.7275376360733L963.2098437499999,304.8587614014648L980.72275,305.8012693074098L998.2356562499999,307.4240409336767L1015.7485624999999,309.12019348769337L1033.26146875,308.4008714716527" style="fill: none;" fill="none"></path></g><g><path stroke="rgb(238, 51, 119)" stroke-width="2px" d="M175.12906249999997,321.3289009094238Z" style="fill: none;" fill="none"></path></g><g><path stroke="rgb(51, 187, 238)" stroke-width="2px" d="M175.12906249999997,183.0441879272461L192.64196875,226.30227956614038L210.154875,263.2007096387624L227.66778125,231.5540546167861L245.1806875,259.9676334141528L262.69359375,278.71264199408535L280.2065,272.8295281428178L297.71940624999996,275.6745594434793L315.2323125,276.35152271206323L332.74521875,277.6453374708744L350.25812499999995,275.6392451124205L367.77103124999996,278.48143251721046L385.2839375,286.76003750488127L402.79684375,291.7683032863298L420.30975,289.00864046177855L437.82265625,288.4360634914032L455.3355625,288.2229564211318L472.84846875,287.5962866369086L490.361375,286.8314090107073L507.87428124999997,287.6036741194596L525.3871875,288.09744713332924L542.90009375,286.40845734092375L560.413,283.68301042364357L577.92590625,279.0337141950586L595.4388124999999,278.98355338223683L612.95171875,274.93526969927143L630.464625,277.9111046084891L647.97753125,277.55688347920494L665.4904375,281.5884013957557L683.00334375,283.883730949704L700.5162499999999,279.24230703559493L718.02915625,280.8535955795237L735.5420624999999,283.5931541581078L753.05496875,284.0700209555502L770.567875,285.95805969861084L788.08078125,288.0429092589062L805.5936875,288.64895755271954L823.10659375,287.7387716142073L840.6195,289.48590466153985L858.1324062499999,291.1003960095494L875.6453125,292.3917417891311L893.15821875,291.7128986759074L910.671125,290.690928264038L928.18403125,291.3176761635825L945.6969375,292.8408983894745L963.2098437499999,293.3092801669432L980.72275,293.80869570435567L998.2356562499999,296.2974371452671" style="fill: none;" fill="none"></path></g><g><path stroke="rgb(204, 51, 17)" stroke-width="2px" d="M175.12906249999997,343.5974332809448L192.64196875,340.90402219475385L210.154875,329.5352404211861L227.66778125,331.19308492747575L245.1806875,308.88624246110203L262.69359375,317.17869677991354L280.2065,323.66154386787997L297.71940624999996,320.7585405424387L315.2323125,330.2872599219555L332.74521875,322.19578857256323L350.25812499999995,309.6716706357283L367.77103124999996,299.8239234036257L385.2839375,294.03448551187574L402.79684375,287.56013683286005L420.30975,287.5088459396959L437.82265625,289.6642114648544L455.3355625,283.8649442330655L472.84846875,284.48097354874426L490.361375,281.8939942223772L507.87428124999997,278.7786860617985L525.3871875,279.63244798717244L542.90009375,281.7227270811351L560.413,283.236264688185" style="fill: none;" fill="none"></path></g><g><path stroke="rgb(0, 119, 187)" stroke-width="2px" d="M175.12906249999997,313.55964012145995L192.64196875,302.80759318429244L210.154875,284.98642457306755L227.66778125,285.5340070233626L245.1806875,289.8961414282134L262.69359375,289.9385395602581L280.2065,296.29884311835116L297.71940624999996,287.1109582683498L315.2323125,286.89461863800426L332.74521875,282.98924451605103L350.25812499999995,278.5417676629447L367.77103124999996,284.07413758934877L385.2839375,289.007890659694L402.79684375,289.54690343924426L420.30975,283.8990478782195L437.82265625,279.09654982155377L455.3355625,278.42447868480474L472.84846875,278.67580366698616L490.361375,277.6068831636179L507.87428124999997,276.42813922222086L525.3871875,280.2945117550998L542.90009375,277.9286703286406L560.413,279.29499765237904L577.92590625,284.72033088822997L595.4388124999999,286.1863215847484L612.95171875,288.7710736386404L630.464625,287.7964287563188L647.97753125,290.1842380434082L665.4904375,293.34412169256404L683.00334375,294.3326367360434L700.5162499999999,294.18576322532437L718.02915625,293.48473124733124L735.5420624999999,292.17602386503864L753.05496875,293.6067966417155L770.567875,289.4786847052162L788.08078125,288.9945196358334L805.5936875,287.3713775547172L823.10659375,287.23261140444697" style="fill: none;" fill="none"></path></g><g><path stroke="rgb(255, 112, 67)" stroke-width="2px" d="M175.12906249999997,319.5227615356445Z" style="fill: none;" fill="none"></path></g><g><path stroke="rgb(187, 187, 187)" stroke-width="2px" d="M175.12906249999997,469.1154151916504L192.64196875,266.3852499075892L210.154875,245.62318012255145L227.66778125,260.623961308774L245.1806875,252.4878284354195L262.69359375,262.4893196444447L280.2065,263.8011759236111L297.71940624999996,263.10637333058315L315.2323125,274.38224038081177L332.74521875,279.6794741701636L350.25812499999995,289.06496661822797L367.77103124999996,290.2462436667258L385.2839375,283.6764504772577L402.79684375,292.2284762811825L420.30975,287.86875880222624L437.82265625,293.4627087182127L455.3355625,295.4111542836385L472.84846875,301.1492158478497L490.361375,298.7524997702063" style="fill: none;" fill="none"></path></g><g><path stroke="rgb(0, 153, 136)" stroke-width="2px" d="M175.12906249999997,60.393164062500006L192.64196875,49.08803334772221L210.154875,56.05017987256932L227.66778125,32.16656916006103L245.1806875,47.21536323894001L262.69359375,122.94573946833876L280.2065,133.84502530331577L297.71940624999996,127.89821567982142L315.2323125,112.91930432195431L332.74521875,93.7929710435279L350.25812499999995,112.1263127985516L367.77103124999996,125.98495977560447L385.2839375,139.53975831400336L402.79684375,140.89671189118934L420.30975,135.7403856076117L437.82265625,128.8627789583974L455.3355625,150.99274483074217L472.84846875,146.13111679120175L490.361375,159.51833532778065L507.87428124999997,169.3191761143997L525.3871875,188.19332375492723L542.90009375,183.9075649319157L560.413,201.35111098571593L577.92590625,194.4408842686748L595.4388124999999,190.5745266142562L612.95171875,186.16317407930373L630.464625,180.7744273881882L647.97753125,153.4724388038741L665.4904375,151.82301620573932L683.00334375,143.2735976618745L700.5162499999999,140.3706514268828L718.02915625,143.69699293952633L735.5420624999999,152.89465619275177L753.05496875,158.41792425150135L770.567875,157.1757216908683L788.08078125,157.13758097532445L805.5936875,158.19066419885021L823.10659375,156.1650664245861L840.6195,153.16794820561287L858.1324062499999,149.72413048528657L875.6453125,150.4548061966113L893.15821875,149.0327643519132L910.671125,150.3908990562425L928.18403125,145.89547906777534L945.6969375,143.83654624385744L963.2098437499999,141.9073491159628L980.72275,138.04469895161375L998.2356562499999,138.36799398747442L1015.7485624999999,142.11449252351005L1033.26146875,147.04889485485094L1050.774375,147.23268331791098L1068.28728125,146.20015591864635L1085.8001875,145.73666580993967L1103.31309375,143.47084642378496L1120.826,143.25473459507555L1138.3389062499998,146.76538447505632L1155.8518125,144.3142102222715L1173.36471875,143.79664720172818L1190.8776249999999,141.41260195616763L1208.3905312499999,139.57992192989434L1225.9034375,138.61249275551103L1243.41634375,137.57543861151973L1260.92925,134.58169669525063" style="fill: none;" fill="none"></path></g><g><path stroke="rgb(238, 51, 119)" stroke-width="2px" d="M175.12906249999997,432.4904118537903L192.64196875,288.6343065455028L210.154875,239.76893975799447L227.66778125,209.53471412816327L245.1806875,225.11415072615674L262.69359375,188.09680343594755L280.2065,161.8544454099265L297.71940624999996,140.2987421297061L315.2323125,161.84221862280717L332.74521875,190.04849475224282L350.25812499999995,206.2378532781834L367.77103124999996,197.5957552267731L385.2839375,186.12260583217915L402.79684375,201.2997404022869L420.30975,199.4352655278792L437.82265625,199.5143498669399L455.3355625,187.0802259183557L472.84846875,191.0056597843046L490.361375,187.873723537728L507.87428124999997,183.80894423325995L525.3871875,188.754510921001L542.90009375,183.9392779860636L560.413,182.23355389876147L577.92590625,191.5867107537062L595.4388124999999,188.91442099858472L612.95171875,184.84563466371938L630.464625,181.2728464768797L647.97753125,193.50999056175908L665.4904375,190.5509728063896L683.00334375,183.73844077479217L700.5162499999999,179.99167093095778L718.02915625,177.4343732394907L735.5420624999999,183.5806205569876L753.05496875,179.96527469985253L770.567875,175.59864925197596L788.08078125,169.42335822496946L805.5936875,174.472811503668L823.10659375,170.67448765175328L840.6195,168.59457912893754L858.1324062499999,176.0070108701411L875.6453125,176.2273720850897L893.15821875,173.4211616502076L910.671125,171.1988189016534L928.18403125,172.25509694850044L945.6969375,178.1521183613744L963.2098437499999,179.96404090464213L980.72275,175.9640338152932L998.2356562499999,174.14200242349716L1015.7485624999999,171.995460642311L1033.26146875,171.11462925127637" style="fill: none;" fill="none"></path></g><g><path stroke="rgb(51, 187, 238)" stroke-width="2px" d="M175.12906249999997,367.7542650222778L192.64196875,184.12778257252197L210.154875,160.23466697964898L227.66778125,134.35038595504454L245.1806875,149.88862851070863L262.69359375,128.39148787655733L280.2065,157.88789813099356L297.71940624999996,123.98070690296021L315.2323125,134.9065900948957L332.74521875,123.48588895729088L350.25812499999995,132.94622547685083L367.77103124999996,144.55665158928548L385.2839375,136.7586500685623L402.79684375,121.11550945789477L420.30975,127.98655408025321L437.82265625,134.44196925360183L455.3355625,128.76237582130761L472.84846875,121.44128610780675L490.361375,117.34088191823332L507.87428124999997,136.02228004770143L525.3871875,156.97020540020458L542.90009375,152.7227344660611L560.413,147.49295244497276L577.92590625,154.9725921757253L595.4388124999999,152.78402778611792L612.95171875,144.6682501654794L630.464625,142.77757504569513L647.97753125,153.74290231365103L665.4904375,147.41225165203178L683.00334375,157.54279939413595L700.5162499999999,167.89491629504562L718.02915625,161.5843470448756L735.5420624999999,158.25080880368847L753.05496875,155.04879599714982L770.567875,154.59008262522445L788.08078125,156.97474565520668L805.5936875,154.67136663770094L823.10659375,157.56279050623357L840.6195,154.17549266237395L858.1324062499999,149.9153504362169L875.6453125,132.50134006878244L893.15821875,140.8822215639355L910.671125,147.45777670038353L928.18403125,148.65751123166555L945.6969375,145.09515390273106L963.2098437499999,141.13378349909982L980.72275,141.64532643349133L998.2356562499999,138.9177292660054L1015.7485624999999,137.86617958491473L1033.26146875,143.79151992701983L1050.774375,142.1118720002387L1068.28728125,141.39427541881673L1085.8001875,143.3038207895218L1103.31309375,143.75195444414962L1120.826,140.92647262747144L1138.3389062499998,145.34890162574544L1155.8518125,147.68267365889858L1173.36471875,146.3565891619921L1190.8776249999999,148.8108185166251L1208.3905312499999,146.34469310617413L1225.9034375,146.85691946430936L1243.41634375,144.37815660661153L1260.92925,142.09216018411541L1278.44215625,140.26228666053984L1295.9550625,137.50178908682142L1313.46796875,135.36800207326348L1330.980875,138.93836654461805L1348.49378125,137.6128255344512L1366.0066875,136.2987555761061L1383.51959375,133.68451735421243L1401.0324999999998,135.37789826881038L1418.54540625,134.67280616052957L1436.0583125,131.98665289777966L1453.5712187499998,130.68133771803264L1471.0841249999999,130.847831945576L1488.59703125,128.84011576234383L1506.1099375,130.7401300172014L1523.62284375,129.27588350544744L1541.13575,128.24808626803363L1558.64865625,127.01162037223693L1576.1615625,126.1970413141303L1593.67446875,129.6387784391303L1611.187375,128.768578935066L1628.70028125,132.36513935275576L1646.2131875,131.68133213655722L1663.7260937499998,130.77676378214124L1681.239,134.89132764834594L1698.75190625,133.5527543096078L1716.2648124999998,132.42500573473808L1733.7777187499998,131.92662031409347L1751.290625,131.58357630217205L1768.8035312499999,135.23531387671974L1786.3164375,135.4809574312414L1803.82934375,134.60830129283227L1821.34225,134.72403394513162L1838.85515625,138.5006727059162L1856.3680625,137.1479240855558L1873.88096875,136.16221493282438L1891.393875,135.74350830261787L1908.90678125,134.35141155522052L1926.4196874999998,133.40615102153726L1943.93259375,135.9748844177414L1961.4455,134.27452192461112L1978.9584062499998,137.83320903217262" style="fill: none;" fill="none"></path></g><g><path stroke="rgb(204, 51, 17)" stroke-width="2px" d="M175.12906249999997,1.7611732482910156L192.64196875,64.83455449762542L210.154875,83.83763524081586L227.66778125,66.77955455675735L245.1806875,131.38741347781345L262.69359375,118.04865923488344L280.2065,109.96140494022366L297.71940624999996,103.91413864699874L315.2323125,104.08948304658583L332.74521875,92.57779943147017L350.25812499999995,112.4462936160713L367.77103124999996,102.953597399062L385.2839375,89.61105145479999L402.79684375,78.76312144632416L420.30975,80.20623852422429L437.82265625,71.88593920593438L455.3355625,73.70013369319483L472.84846875,77.4419852947909L490.361375,72.46933611897559L507.87428124999997,76.46353516144264L525.3871875,72.99083278491639L542.90009375,69.54065697474519L560.413,66.22563664793456L577.92590625,63.26449471658972L595.4388124999999,61.15268173912435L612.95171875,58.314907788088895L630.464625,58.988719319502856L647.97753125,59.495463594593495L665.4904375,61.733607554562155L683.00334375,54.78484382780471L700.5162499999999,52.92287344609323L718.02915625,51.81070571333098L735.5420624999999,54.277491134255676L753.05496875,52.20497581919359L770.567875,52.066433890030964L788.08078125,53.078463288020075L805.5936875,52.2023003013778L823.10659375,51.06181159587487L840.6195,49.19719465792331L858.1324062499999,48.54419467593082L875.6453125,48.17611528798781L893.15821875,49.20446643169302L910.671125,50.54798901892073L928.18403125,51.141937068225246L945.6969375,47.51859318945023L963.2098437499999,43.74008567275472L980.72275,45.964865776697465" style="fill: none;" fill="none"></path></g><g><path stroke="rgb(0, 119, 187)" stroke-width="2px" d="M175.12906249999997,19.519529724121103L192.64196875,52.04237340608758L210.154875,39.604826665246954L227.66778125,22.63718589790717L245.1806875,17.26248234529534L262.69359375,29.03564729620931L280.2065,28.260699651765744L297.71940624999996,35.219189386575025L315.2323125,39.06580943876015L332.74521875,30.021198653001022L350.25812499999995,47.6535608261773L367.77103124999996,52.379051373872414L385.2839375,73.76145506134465L402.79684375,84.08962723608111L420.30975,79.80313295091327L437.82265625,71.40972817956981L455.3355625,80.00223826273496L472.84846875,82.64398168999816L490.361375,87.5305331452562L507.87428124999997,96.09187702248909L525.3871875,99.64628457580784L542.90009375,98.07699313956459L560.413,95.61046289970712L577.92590625,93.51297056280043L595.4388124999999,91.44463745472693L612.95171875,90.75829570735883L630.464625,88.01991841705836L647.97753125,96.60840815206156L665.4904375,96.14278353811522L683.00334375,97.12769844347936L700.5162499999999,101.97305065523601L718.02915625,103.58982186593384L735.5420624999999,102.36452178682151L753.05496875,102.25535611482621L770.567875,106.15193044387837L788.08078125,105.32036324288917L805.5936875,104.57945501351334L823.10659375,101.31693562502944L840.6195,102.44849613159089L858.1324062499999,100.02170523503297L875.6453125,98.84157148519922L893.15821875,97.40450797013936L910.671125,97.0780149412477L928.18403125,95.68619085315719L945.6969375,96.9263692155606L963.2098437499999,96.11296375536253L980.72275,96.67377622493554L998.2356562499999,93.95514360135576L1015.7485624999999,94.26256727986446L1033.26146875,98.26701500718393L1050.774375,97.96470709136213L1068.28728125,100.79795635741345L1085.8001875,101.10706047592758L1103.31309375,102.1846629986696L1120.826,107.06489787008564L1138.3389062499998,105.00247590574732L1155.8518125,103.60535312615725L1173.36471875,102.9518070715416L1190.8776249999999,101.65063055523174L1208.3905312499999,106.09068603497778L1225.9034375,105.34538692084202L1243.41634375,105.21790027012469L1260.92925,105.30390954697008L1278.44215625,104.53031413736032L1295.9550625,103.94403013458557L1313.46796875,103.59068744385546L1330.980875,101.42718192575578L1348.49378125,101.16414647258834L1366.0066875,102.33248319778932L1383.51959375,101.55456867608915L1401.0324999999998,100.6215161192537L1418.54540625,101.12925945411651L1436.0583125,98.21991270097462L1453.5712187499998,97.31961928324287L1471.0841249999999,102.7593339834884L1488.59703125,103.25834417891704L1506.1099375,104.3658338725905L1523.62284375,103.49225999606017L1541.13575,104.52368768221196L1558.64865625,105.77600759210797L1576.1615625,107.03453552141447L1593.67446875,105.85231310916576L1611.187375,105.84442381244573L1628.70028125,104.93508149308627L1646.2131875,104.93316609578736L1663.7260937499998,104.5917561805778L1681.239,104.4572933627215L1698.75190625,105.76537670338344L1716.2648124999998,105.12670931990885L1733.7777187499998,103.8259469493413L1751.290625,104.54013057519666L1768.8035312499999,105.2204705454831L1786.3164375,104.54807331339943L1803.82934375,104.75380453739479L1821.34225,104.54588982040714L1838.85515625,104.27385725348262L1856.3680625,103.55505686206381L1873.88096875,103.92376222057224L1891.393875,107.21708569799308L1908.90678125,109.77124613566755L1926.4196874999998,109.76483126441812L1943.93259375,110.74864858478662L1961.4455,110.93298809021714L1978.9584062499998,112.02840057449566L1996.4713124999998,111.69088236006677L2013.98421875,114.8247081846327" style="fill: none;" fill="none"></path></g><g><path stroke="rgb(255, 112, 67)" stroke-width="2px" d="M175.12906249999997,33.264318847656256L192.64196875,69.01669248625177" style="fill: none;" fill="none"></path></g></g></g></g><g opacity="0.2"><g><g><g><path stroke="rgb(51, 187, 238)" stroke-width="2px" d="M175.12906249999997,243.80762329101563L192.64196875,218.4030891418457L210.154875,290.99107360839844L227.66778125,232.6075798034668L245.1806875,339.2868438720703L262.69359375,228.2642608642578L280.2065,260.0520305633545L297.71940624999996,241.0574104309082L315.2323125,248.27171249389647L332.74521875,197.77315788269044L350.25812499999995,322.3901050567627L367.77103124999996,249.95164909362794L385.2839375,257.860075378418L402.79684375,277.01641578674315L420.30975,97.00190124511718L437.82265625,331.42627029418946L455.3355625,265.8116031646728L472.84846875,295.3506362915039L490.361375,217.31653327941893L507.87428124999997,359.084614944458L525.3871875,299.1626628875733L542.90009375,298.6498195648193L560.413,262.12850456237794L577.92590625,290.40151176452633L595.4388124999999,215.05390167236328L612.95171875,309.22109031677246L630.464625,272.0314151763916L647.97753125,283.4876651763916L665.4904375,228.7990493774414L683.00334375,296.2270992279053L700.5162499999999,313.91546058654785L718.02915625,279.4861461639404L735.5420624999999,317.5193305969238L753.05496875,230.6069278717041L770.567875,275.0530742645264L788.08078125,317.4906261444092L805.5936875,259.4558528900147L823.10659375,296.698849105835L840.6195,383.46582012176515L858.1324062499999,355.49918498992923L875.6453125,340.4564651489258L893.15821875,321.03674659729L910.671125,253.2439655303955L928.18403125,354.52698974609376L945.6969375,274.1552757263184L963.2098437499999,434.1686272621155L980.72275,337.2449909210205L998.2356562499999,316.6250820159912L1015.7485624999999,273.1511039733887L1033.26146875,315.32594108581543L1050.774375,323.8568649291992L1068.28728125,253.51419258117676L1085.8001875,322.78748512268066L1103.31309375,282.785221862793L1120.826,232.19001159667968L1138.3389062499998,210.9273452758789L1155.8518125,280.6020877838135L1173.36471875,321.9491214752197L1190.8776249999999,365.23515796661377L1208.3905312499999,241.08048515319825L1225.9034375,303.9852439880371L1243.41634375,296.1597755432129L1260.92925,267.47215843200684L1278.44215625,371.1698438644409L1295.9550625,322.2780303955078L1313.46796875,294.87069282531735L1330.980875,322.7292694091797L1348.49378125,320.08727645874023L1366.0066875,-98.65894241333007L1383.51959375,130.90051498413087L1401.0324999999998,260.79262695312497L1418.54540625,299.98410148620604L1436.0583125,269.47549972534176L1453.5712187499998,76.18660125732421L1471.0841249999999,333.92137031555177L1488.59703125,201.35870437622071L1506.1099375,275.5477912902832L1523.62284375,315.28271408081054L1541.13575,297.3915927886963L1558.64865625,264.8143161773682L1576.1615625,306.78429565429684L1593.67446875,138.41631240844725L1611.187375,361.871851348877L1628.70028125,312.00988655090333L1646.2131875,-183.54512634277341L1663.7260937499998,256.63410301208495L1681.239,310.81362266540526L1698.75190625,296.1809677124024L1716.2648124999998,360.43758792877196L1733.7777187499998,263.37710342407223L1751.290625,313.6916698455811L1768.8035312499999,308.0089771270752L1786.3164375,236.77275543212892L1803.82934375,233.1744613647461L1821.34225,14.590073394775407L1838.85515625,261.4030044555664L1856.3680625,413.4103910446167L1873.88096875,269.7537052154541L1891.393875,293.3991279602051L1908.90678125,297.0489501953125" style="fill: none;" fill="none"></path></g><g><path stroke="rgb(204, 51, 17)" stroke-width="2px" d="M175.12906249999997,300.41457862854L192.64196875,360.33592109680177L210.154875,302.1269847869873L227.66778125,330.84357528686525L245.1806875,305.5366828918457L262.69359375,376.7616451263428L280.2065,363.2466619491577L297.71940624999996,318.60862960815433L315.2323125,373.41762123107907L332.74521875,273.0131038665772L350.25812499999995,256.7965404510498L367.77103124999996,282.57520065307614L385.2839375,212.3806224822998L402.79684375,328.32893257141114L420.30975,246.13822402954102L437.82265625,306.2627746582031L455.3355625,363.00986366271974L472.84846875,278.88591651916505L490.361375,289.1097038269043L507.87428124999997,200.8569591522217L525.3871875,359.70716629028317L542.90009375,328.22182426452633L560.413,345.5480810165405L577.92590625,255.48540496826172L595.4388124999999,241.40699157714843L612.95171875,294.64265289306644L630.464625,236.68570976257325L647.97753125,308.6919315338135L665.4904375,330.7231994628906L683.00334375,309.69791412353516L700.5162499999999,318.0122905731201L718.02915625,290.04730491638185L735.5420624999999,259.2281536102295L753.05496875,278.4969093322754L770.567875,304.00821113586426L788.08078125,367.85466785430907L805.5936875,398.3653314590454L823.10659375,298.9188095092773L840.6195,323.593648147583L858.1324062499999,217.48013610839843L875.6453125,369.32949581146244L893.15821875,337.16457901000973L910.671125,304.5818698883057L928.18403125,282.0681484222412L945.6969375,214.82795944213868L963.2098437499999,323.9091640472412L980.72275,288.6095363616943L998.2356562499999,226.69994888305663L1015.7485624999999,245.45349464416503L1033.26146875,403.53908042907716L1050.774375,255.8340000152588L1068.28728125,243.7161491394043L1085.8001875,274.28215980529785L1103.31309375,353.16858425140384L1120.826,252.60859489440918L1138.3389062499998,319.9694286346435L1155.8518125,311.60235862731935L1173.36471875,310.67700309753417L1190.8776249999999,363.3331338882446L1208.3905312499999,321.47539939880375L1225.9034375,364.4805141448974L1243.41634375,292.949789428711L1260.92925,333.0087982177734L1278.44215625,318.77121047973634L1295.9550625,321.16133575439454L1313.46796875,347.93766841888424L1330.980875,375.9588706970215L1348.49378125,360.3748630523682L1366.0066875,297.9087390899658L1383.51959375,284.4046657562256L1401.0324999999998,294.5761001586914L1418.54540625,294.7874481201172L1436.0583125,327.4947822570801L1453.5712187499998,276.03381271362304L1471.0841249999999,258.0816787719727L1488.59703125,388.3437931060791L1506.1099375,347.0127342224121L1523.62284375,333.2135841369629L1541.13575,343.19216442108154L1558.64865625,286.8350059509277L1576.1615625,369.0005599975586L1593.67446875,292.48695030212406L1611.187375,390.5631439208984L1628.70028125,319.45952568054196L1646.2131875,282.4867206573486L1663.7260937499998,297.80091361999513L1681.239,285.9716133117676L1698.75190625,277.8333541870117L1716.2648124999998,318.82628860473636L1733.7777187499998,270.48228912353517L1751.290625,338.1714580535889L1768.8035312499999,319.21534957885746L1786.3164375,240.34718589782716L1803.82934375,367.2492477416992L1821.34225,357.24238433837894L1838.85515625,306.4549922943115L1856.3680625,341.13931198120116L1873.88096875,290.41006393432616L1891.393875,392.9838920593262L1908.90678125,345.561904335022L1926.4196874999998,307.2661575317383L1943.93259375,332.10750350952145L1961.4455,328.2656967163086L1978.9584062499998,335.99334411621095L1996.4713124999998,347.8049753189087L2013.98421875,324.2653430938721" style="fill: none;" fill="none"></path></g><g><path stroke="rgb(0, 119, 187)" stroke-width="2px" d="M175.12906249999997,192.5055233001709L192.64196875,216.47607192993163" style="fill: none;" fill="none"></path></g><g><path stroke="rgb(255, 112, 67)" stroke-width="2px" d="M175.12906249999997,104.95391311645508L192.64196875,150.7945472717285L210.154875,181.5903549194336L227.66778125,246.15219078063964L245.1806875,143.17723541259767L262.69359375,183.99338912963867L280.2065,329.6670692443848L297.71940624999996,227.01901473999024L315.2323125,201.17880401611328L332.74521875,251.66981048583983L350.25812499999995,358.7002693176269L367.77103124999996,315.24732208251953L385.2839375,150.84693603515626L402.79684375,265.0491512298584L420.30975,313.59998054504393L437.82265625,320.8442779541015L455.3355625,280.50980682373046L472.84846875,318.91509132385255L490.361375,260.5540626525879L507.87428124999997,309.5124198913574L525.3871875,351.3648025512695L542.90009375,182.37070007324218L560.413,295.0871147155762L577.92590625,214.6003318786621L595.4388124999999,249.8520709991455L612.95171875,204.95463180541992L630.464625,164.03656921386718L647.97753125,313.81559562683105L665.4904375,331.4219135284424L683.00334375,303.3025405883789L700.5162499999999,156.2601188659668L718.02915625,275.43053512573243L735.5420624999999,227.1652801513672L753.05496875,342.76503105163573L770.567875,211.1943630218506L788.08078125,273.36575088500973L805.5936875,328.5479541778564L823.10659375,328.34058647155763L840.6195,202.38302841186524L858.1324062499999,374.33300819396976L875.6453125,367.21394538879395L893.15821875,227.25099906921386L910.671125,188.951908493042L928.18403125,240.59204330444337L945.6969375,350.62671623229977L963.2098437499999,263.41916503906253L980.72275,253.3475597381592L998.2356562499999,308.0081523895264L1015.7485624999999,232.06165733337403L1033.26146875,263.6284690856933L1050.774375,251.9892707824707L1068.28728125,393.9235191345215L1085.8001875,306.92772827148434L1103.31309375,369.255708694458L1120.826,214.9815757751465L1138.3389062499998,335.3595512390137L1155.8518125,234.1956298828125L1173.36471875,272.8578380584717L1190.8776249999999,327.85723648071286L1208.3905312499999,377.30620498657225L1225.9034375,321.0595703125L1243.41634375,414.77024431228637L1260.92925,320.285087966919L1278.44215625,156.1156463623047L1295.9550625,329.85830078124997L1313.46796875,349.02088050842286L1330.980875,276.9152061462402L1348.49378125,185.03696899414064L1366.0066875,292.530679321289L1383.51959375,328.29411430358886L1401.0324999999998,295.637878036499L1418.54540625,324.1427082061768L1436.0583125,299.7472404479981L1453.5712187499998,283.15027580261227L1471.0841249999999,381.19811458587645L1488.59703125,263.1695922851563L1506.1099375,245.56861724853516L1523.62284375,299.68346672058107L1541.13575,283.06419830322267L1558.64865625,254.1357578277588L1576.1615625,296.6228298187256L1593.67446875,328.41771736145023L1611.187375,310.81082572937015L1628.70028125,214.90073356628417L1646.2131875,302.87511138916017L1663.7260937499998,358.16029033660885L1681.239,183.4582061767578L1698.75190625,311.8257907867432L1716.2648124999998,232.06070709228516L1733.7777187499998,314.39816513061527L1751.290625,220.4577793121338L1768.8035312499999,245.03775520324706L1786.3164375,223.06793022155762L1803.82934375,254.12889099121094L1821.34225,217.0515594482422L1838.85515625,274.1622142791748L1856.3680625,306.9665985107422L1873.88096875,370.3109872817993L1891.393875,243.08916931152345L1908.90678125,234.27265319824218L1926.4196874999998,171.68170700073242" style="fill: none;" fill="none"></path></g><g><path stroke="rgb(187, 187, 187)" stroke-width="2px" d="M175.12906249999997,248.1045597076416L192.64196875,337.195524597168L210.154875,384.2455467224121L227.66778125,348.69380035400394L245.1806875,224.14650764465333L262.69359375,324.1681854248047L280.2065,330.46277961730954L297.71940624999996,221.7342758178711L315.2323125,173.94105758666993L332.74521875,339.0193241119385L350.25812499999995,377.9130683898926L367.77103124999996,237.27521781921388L385.2839375,274.93468856811523L402.79684375,246.1711238861084L420.30975,340.4822292327881L437.82265625,256.08974037170407L455.3355625,365.0445539474487L472.84846875,111.24787979125978L490.361375,362.0867761611939L507.87428124999997,372.85744514465335L525.3871875,311.0004257202149L542.90009375,271.27441368103024L560.413,269.4892692565918L577.92590625,237.4493808746338L595.4388124999999,285.6473480224609L612.95171875,340.69511013031007L630.464625,267.27318153381344L647.97753125,382.44916973114016L665.4904375,309.6807918548584L683.00334375,355.33604831695556L700.5162499999999,250.64288673400878L718.02915625,326.5324569702148L735.5420624999999,254.72268409729003L753.05496875,213.15006675720215L770.567875,274.8502964019776L788.08078125,335.3128639221191L805.5936875,197.9188674926758L823.10659375,175.67666397094726L840.6195,212.20979423522948L858.1324062499999,296.09447784423827L875.6453125,376.603080368042L893.15821875,280.34433937072754L910.671125,299.1839088439942L928.18403125,353.71139602661134L945.6969375,398.8489593505859L963.2098437499999,181.32672576904298L980.72275,301.46160087585446L998.2356562499999,348.47616825103756L1015.7485624999999,276.1831798553467L1033.26146875,256.4734764099121" style="fill: none;" fill="none"></path></g><g><path stroke="rgb(0, 153, 136)" stroke-width="2px" d="M175.12906249999997,330.4252899169922L192.64196875,362.92313175201417L210.154875,301.8155029296875L227.66778125,322.05832748413087L245.1806875,263.3485782623291L262.69359375,255.36318244934083L280.2065,236.5793186187744L297.71940624999996,208.64072456359864L315.2323125,289.4530277252197L332.74521875,334.1910774230957L350.25812499999995,344.09815654754635L367.77103124999996,293.8280452728272L385.2839375,319.31881828308104L402.79684375,315.37266426086427L420.30975,273.94910926818847L437.82265625,259.18227310180663L455.3355625,207.23261070251465L472.84846875,330.6172386169433L490.361375,386.78551425933836L507.87428124999997,416.70228614807127L525.3871875,209.79003219604493L542.90009375,264.3962459564209L560.413,435.21603498458865L577.92590625,345.679913520813L595.4388124999999,183.58370971679688L612.95171875,357.6426330566406L630.464625,360.46006202697754L647.97753125,229.30819931030274L665.4904375,327.8096706390381L683.00334375,372.50835704803467L700.5162499999999,317.4807113647461L718.02915625,234.25128173828125L735.5420624999999,261.0924549102783L753.05496875,383.28184089660647L770.567875,266.0142196655274L788.08078125,395.50959701538085L805.5936875,332.54601287841797L823.10659375,134.78058242797852L840.6195,334.58094520568847L858.1324062499999,258.7566188812256L875.6453125,355.5956254959106L893.15821875,309.59363861083983L910.671125,266.92637939453124L928.18403125,391.11969833374025L945.6969375,373.8848978042602L963.2098437499999,266.64996681213375L980.72275,348.1528980255127L998.2356562499999,381.89157543182375L1015.7485624999999,388.57173442840576L1033.26146875,274.02132759094235" style="fill: none;" fill="none"></path></g><g><path stroke="rgb(238, 51, 119)" stroke-width="2px" d="M175.12906249999997,321.3289009094238Z" style="fill: none;" fill="none"></path></g><g><path stroke="rgb(51, 187, 238)" stroke-width="2px" d="M175.12906249999997,183.0441879272461L192.64196875,269.51711311340335L210.154875,336.8869113922119L227.66778125,136.8038429260254L245.1806875,373.3380968093872L262.69359375,372.15688438415526L280.2065,237.6541847229004L297.71940624999996,295.5102767944336L315.2323125,281.74291496276857L332.74521875,289.2316036224365L350.25812499999995,255.68832626342774L367.77103124999996,309.5585334777832L385.2839375,385.45992794036863L402.79684375,356.4218242645264L420.30975,250.661873626709L437.82265625,279.9157985687256L455.3355625,284.84208145141605L472.84846875,277.03827133178714L490.361375,273.19366760253905L507.87428124999997,302.13085746765137L525.3871875,297.869868850708L542.90009375,251.32723960876464L560.413,224.40791358947754L577.92590625,173.37374572753907L595.4388124999999,277.7946273803711L612.95171875,175.0334045410156L630.464625,354.2469465255737L647.97753125,268.1256553649902L665.4904375,392.84874267578124L683.00334375,349.4590761184692L700.5162499999999,142.1371337890625L718.02915625,330.0122756958008L735.5420624999999,369.82737731933594L753.05496875,299.54193458557125L770.567875,349.0402528762817L788.08078125,359.7139524459839L805.5936875,310.06773719787594L823.10659375,254.69414100646972L840.6195,354.5981592178345L858.1324062499999,352.8220600128174L875.6453125,343.0003053665161L893.15821875,264.4570972442627L910.671125,248.67852325439452L928.18403125,317.6831485748291L945.6969375,358.3760757446289L963.2098437499999,313.90871925354L980.72275,316.2499519348144L998.2356562499999,410.5035497665405" style="fill: none;" fill="none"></path></g><g><path stroke="rgb(204, 51, 17)" stroke-width="2px" d="M175.12906249999997,343.5974332809448L192.64196875,338.2133045196533L210.154875,306.83177185058594L227.66778125,336.1566780090332L245.1806875,219.8817180633545L262.69359375,358.51674728393556L280.2065,362.4227132797241L297.71940624999996,300.5186389923096L315.2323125,406.1747802734375L332.74521875,249.735693359375L350.25812499999995,185.11725540161132L367.77103124999996,192.14649353027343L385.2839375,225.01115531921386L402.79684375,203.98041954040528L420.30975,286.79613571166993L437.82265625,321.7372535705567L455.3355625,191.86143913269044L472.84846875,294.85972023010254L490.361375,235.7682430267334L507.87428124999997,220.17620315551758L525.3871875,296.5295269012451L542.90009375,325.1389373779297L560.413,316.1538341522217" style="fill: none;" fill="none"></path></g><g><path stroke="rgb(0, 119, 187)" stroke-width="2px" d="M175.12906249999997,313.55964012145995L192.64196875,292.0662982940674L210.154875,249.39753303527831L227.66778125,287.1734710693359L245.1806875,307.30110130310055L262.69359375,290.14989509582523L280.2065,334.3273204803467L297.71940624999996,223.05251121520996L315.2323125,285.17167167663575L332.74521875,248.01615142822266L350.25812499999995,234.31087799072264L367.77103124999996,344.56628475189206L385.2839375,347.82950229644774L402.79684375,296.50521507263187L420.30975,205.4195327758789L437.82265625,207.63269805908203L455.3355625,267.7622867584228L472.84846875,282.9100799560547L490.361375,258.548067855835L507.87428124999997,254.25462760925294L525.3871875,356.8151433944702L542.90009375,228.78888359069825L560.413,309.0109256744385L577.92590625,408.0165267944336L595.4388124999999,320.9336544036865L612.95171875,352.55651245117184L630.464625,262.79492835998536L647.97753125,353.76027069091793L665.4904375,380.5494226455688L683.00334375,322.57355537414554L700.5162499999999,289.8471984863281L718.02915625,272.09699974060055L735.5420624999999,250.98129806518554L753.05496875,340.02813053131104L770.567875,151.55230178833008L788.08078125,272.350337600708L805.5936875,230.00676994323732L823.10659375,282.19465599060055" style="fill: none;" fill="none"></path></g><g><path stroke="rgb(255, 112, 67)" stroke-width="2px" d="M175.12906249999997,319.5227615356445Z" style="fill: none;" fill="none"></path></g><g><path stroke="rgb(187, 187, 187)" stroke-width="2px" d="M175.12906249999997,469.1154151916504L192.64196875,63.85781478881836L210.154875,204.16130599975585L227.66778125,305.53636016845707L245.1806875,220.02457695007325L262.69359375,312.34695320129396L280.2065,271.64481048583986L297.71940624999996,258.262170791626L315.2323125,364.1841913223266L332.74521875,327.116837310791L350.25812499999995,382.4052345275879L367.77103124999996,303.1625862121582L385.2839375,205.3495018005371L402.79684375,402.6296817779541L420.30975,227.2885066986084L437.82265625,376.7038059234619L455.3355625,326.32261505126957L472.84846875,397.8230037689209L490.361375,256.01913566589354" style="fill: none;" fill="none"></path></g><g><path stroke="rgb(0, 153, 136)" stroke-width="2px" d="M175.12906249999997,60.393164062500006L192.64196875,37.79420776367186L210.154875,69.95359344482421L227.66778125,-39.34105682373047L245.1806875,107.26020202636718L262.69359375,500.4631784439087L280.2065,199.01223640441896L297.71940624999996,86.43672637939454L315.2323125,-6.374002075195346L332.74521875,-77.48563461303712L350.25812499999995,294.45441551208495L367.77103124999996,277.51844787597656L385.2839375,301.14393348693847L402.79684375,158.41411819458008L420.30975,64.09089279174805L437.82265625,26.520153045654297L455.3355625,502.07751927375796L472.84846875,64.22331695556642L490.361375,398.21197509765625L507.87428124999997,353.68411693572995L525.3871875,561.7376955986023L542.90009375,94.89007110595702L560.413,580.7266456604003L577.92590625,37.39897918701172L595.4388124999999,98.9330062866211L612.95171875,77.30164642333983L630.464625,42.542795562744146L647.97753125,-573.4499862670898L665.4904375,106.30286102294923L683.00334375,-100.97502059936522L700.5162499999999,54.61917648315429L718.02915625,245.18009414672852L735.5420624999999,442.413322353363L753.05496875,337.62001342773436L770.567875,115.67187957763673L788.08078125,155.8264144897461L805.5936875,195.4084201812744L823.10659375,82.62500457763673L840.6195,41.47117462158204L858.1324062499999,18.06770477294921L875.6453125,179.09039611816405L893.15821875,91.93725967407227L910.671125,206.2227554321289L928.18403125,-43.21384506225588L945.6969375,55.252933502197266L963.2098437499999,57.06122436523438L980.72275,-35.52363357543949L998.2356562499999,153.20371322631837L1015.7485624999999,317.6087787628174L1033.26146875,382.8855545043945L1050.774375,156.19155807495116L1068.28728125,94.88784790039062L1085.8001875,122.26314620971681L1103.31309375,26.569314575195303L1120.826,131.90002517700196L1138.3389062499998,334.54076614379886L1155.8518125,10.889762878417969L1173.36471875,115.13533401489258L1190.8776249999999,7.140649414062492L1208.3905312499999,34.633813476562494L1225.9034375,82.30281906127931L1243.41634375,76.23755569458007L1260.92925,-45.30064620971676" style="fill: none;" fill="none"></path></g><g><path stroke="rgb(238, 51, 119)" stroke-width="2px" d="M175.12906249999997,432.4904118537903L192.64196875,144.92205734252929L210.154875,142.18475341796875L227.66778125,119.01332168579103L245.1806875,287.27625846862793L262.69359375,3.5645874023437667L280.2065,4.950469207763655L297.71940624999996,-9.988826751708984L315.2323125,333.41627235412597L332.74521875,442.6390763282776L350.25812499999995,367.2436897277832L367.77103124999996,103.10115814208984L385.2839375,49.3364456176758L402.79684375,397.2268798828125L420.30975,173.52754135131835L437.82265625,200.69116897583007L455.3355625,-10.183142089843717L472.84846875,257.14063529968263L490.361375,132.0314094543457L507.87428124999997,107.34583129882813L525.3871875,286.63382377624515L542.90009375,83.924324798584L560.413,145.13616638183595L577.92590625,404.14667892456055L595.4388124999999,125.57504119873047L612.95171875,84.43781356811525L630.464625,89.62401428222657L647.97753125,519.3270799160003L665.4904375,108.88909454345702L683.00334375,-10.889009857177701L700.5162499999999,69.31409912109376L718.02915625,99.41397171020509L735.5420624999999,377.0486000061035L753.05496875,62.66560287475584L770.567875,29.70317382812498L788.08078125,-42.86512451171877L805.5936875,352.9290966033936L823.10659375,32.77496261596678L840.6195,91.08042907714844L858.1324062499999,459.3827142715454L875.6453125,184.86345138549805L893.15821875,60.750777435302716L910.671125,79.84004516601561L928.18403125,216.68966102600098L945.6969375,431.86581659317017L963.2098437499999,259.6524272918701L980.72275,-3.776437377929721L998.2356562499999,90.53061599731444L1015.7485624999999,71.44669113159179L1033.26146875,129.0158462524414" style="fill: none;" fill="none"></path></g><g><path stroke="rgb(51, 187, 238)" stroke-width="2px" d="M175.12906249999997,367.7542650222778L192.64196875,0.684926605224601L210.154875,112.52009124755858L227.66778125,56.852745056152344L245.1806875,211.88637161254883L262.69359375,21.227812194824228L280.2065,334.24796638488766L297.71940624999996,-112.42212677001953L315.2323125,221.921240234375L332.74521875,21.212142181396466L350.25812499999995,227.03083000183105L367.77103124999996,271.5075992584229L385.2839375,43.788651275634784L402.79684375,-80.82747116088863L420.30975,223.4628360748291L437.82265625,230.50215034484864L455.3355625,38.65745697021484L472.84846875,-1.9030639648437333L490.361375,44.23081817626954L507.87428124999997,487.4405854344368L525.3871875,571.5573839187622L542.90009375,64.50050048828126L560.413,33.75166702270508L577.92590625,324.95498504638675L595.4388124999999,100.9100456237793L612.95171875,-55.60954284667969L630.464625,94.27815170288085L647.97753125,445.6975438117981L718.02915625,-30.944332122802734L735.5420624999999,53.31964111328125L753.05496875,51.15968933105469L770.567875,139.2637840270996L788.08078125,238.95250091552734L805.5936875,73.26602630615236L823.10659375,262.53698272705077L840.6195,27.93748245239257L858.1324062499999,-12.948989105224593L910.671125,417.7737098693848L928.18403125,199.12687492370605L945.6969375,-8.171858215331998L963.2098437499999,-33.087358856201135L980.72275,164.63152770996095L998.2356562499999,13.750741577148428L1015.7485624999999,88.6092643737793L1033.26146875,426.9894392967224L1050.774375,60.23646392822266L1068.28728125,105.73271636962892L1085.8001875,240.01300582885742L1103.31309375,166.87273406982422L1120.826,-7.526877593994124L1138.3389062499998,381.892938041687L1155.8518125,274.7165813446045L1173.36471875,72.92142944335939L1190.8776249999999,287.03561439514164L1208.3905312499999,5.125134277343767L1225.9034375,176.671297454834L1243.41634375,-2.231417083740201L1260.92925,4.7354995727538896L1278.44215625,28.594188690185547L1295.9550625,-33.546952819824256L1313.46796875,1.1526962280273354L1330.980875,366.8566816329956L1348.49378125,51.755795288085956L1366.0066875,49.95707855224609L1383.51959375,-40.525272369384766L1401.0324999999998,249.80167236328126L1418.54540625,86.37214584350585L1436.0583125,-54.52135543823244L1453.5712187499998,38.83585128784179L1471.0841249999999,142.71742630004883L1488.59703125,-16.155210113525424L1506.1099375,269.71822357177734L1523.62284375,20.816698455810556L1541.13575,51.16678924560545L1558.64865625,33.13838500976561L1576.1615625,63.60178756713867L1593.67446875,397.28834972381594L1611.187375,60.295127868652344L1628.70028125,418.67790908813475L1646.2131875,76.61654052734374L1663.7260937499998,57.103967285156244L1681.239,473.7783513069153L1698.75190625,22.077112579345712L1716.2648124999998,37.4740303039551L1733.7777187499998,89.50905303955079L1751.290625,102.0736068725586L1768.8035312499999,452.7058183670044L1786.3164375,157.06047286987305L1803.82934375,57.15130004882812L1821.34225,145.10181427001953L1838.85515625,480.5871699213982L1856.3680625,13.387606048583994L1873.88096875,45.08707504272463L1891.393875,96.67727737426759L1908.90678125,3.204965972900399L1926.4196874999998,43.49992141723632L1943.93259375,382.61575775146486" style="fill: none;" fill="none"></path></g><g><path stroke="rgb(204, 51, 17)" stroke-width="2px" d="M175.12906249999997,1.7611732482910156L192.64196875,127.84486236572266L210.154875,121.78680648803712L227.66778125,15.707592773437517L245.1806875,389.17341632843016L262.69359375,51.55470275878906L280.2065,61.60742874145506L297.71940624999996,61.75225982666015L315.2323125,105.4859405517578L332.74521875,-10.51070632934567L350.25812499999995,310.0417400360107L367.77103124999996,-0.8416267395019865L402.79684375,-61.2767448425293L420.30975,100.25900497436524L437.82265625,-51.92475891113281L455.3355625,102.48174438476562L472.84846875,140.48400115966797L490.361375,-16.192825317382812L507.87428124999997,151.5989532470703L525.3871875,4.261454772949202L542.90009375,-2.1213325500487947L577.92590625,-4.03045654296875L595.4388124999999,11.09788360595704L612.95171875,-11.714500427246094L630.464625,76.27327041625978L647.97753125,72.9876594543457L665.4904375,123.5010772705078L683.00334375,-143.73461456298827L700.5162499999999,-2.078733062744174L718.02915625,17.879664611816388L735.5420624999999,131.92552032470704L753.05496875,-15.037654876708984L770.567875,47.43754119873045L788.08078125,87.86908035278321L805.5936875,21.23720703124999L823.10659375,9.655955505371077L840.6195,-20.29345626831053L858.1324062499999,23.580142974853516L875.6453125,33.750878143310565L893.15821875,90.49314422607421L910.671125,105.77915267944337L928.18403125,76.12761459350585L945.6969375,-108.37230682373047L963.2098437499999,-122.4387435913086L980.72275,145.9354446411133" style="fill: none;" fill="none"></path></g><g><path stroke="rgb(0, 119, 187)" stroke-width="2px" d="M175.12906249999997,19.519529724121103L192.64196875,84.53269424438477L210.154875,14.767033386230485L227.66778125,-28.163998413085956L245.1806875,-4.182638549804654L262.69359375,87.72510986328126L280.2065,23.62726058959962L297.71940624999996,83.73416900634766L315.2323125,69.70061416625975L332.74521875,-50.974374389648474L350.25812499999995,223.01030616760255L367.77103124999996,104.04860229492186L385.2839375,328.68857192993164L402.79684375,217.4197509765625L420.30975,20.240350341796866L437.82265625,-53.488819885253925L455.3355625,216.31964073181152L472.84846875,127.15158081054688L490.361375,174.65757522583007L507.87428124999997,257.14047393798825L525.3871875,169.99271621704102L542.90009375,65.48197402954102L560.413,41.96648330688475L577.92590625,45.845331573486334L595.4388124999999,42.4204116821289L612.95171875,73.82103881835937L630.464625,17.77531738281248L647.97753125,325.2791427612305L665.4904375,83.29264755249022L683.00334375,125.26576461791993L700.5162499999999,245.10215644836427L718.02915625,152.91577224731446L735.5420624999999,63.79524230957031L753.05496875,98.71348266601564L770.567875,236.34229621887206L788.08078125,76.73350982666017L805.5936875,78.39449539184571L823.10659375,-17.13001403808597L840.6195,144.61955795288085L858.1324062499999,7.246000671386727L875.6453125,52.59146957397463L893.15821875,39.70587768554688L910.671125,83.65614166259766L928.18403125,37.136174774169916L945.6969375,150.28385543823242L963.2098437499999,60.33937683105469L980.72275,121.87390594482423L998.2356562499999,-30.80046920776369L1015.7485624999999,108.66297302246093L1033.26146875,289.6570785522461L1050.774375,83.22853317260743L1068.28728125,241.5986354827881L1085.8001875,116.76168060302734L1103.31309375,157.78193893432618L1120.826,363.47681751251224L1138.3389062499998,-5.311022949218733L1155.8518125,27.55595169067382L1173.36471875,66.76010208129884L1190.8776249999999,28.366991424560556L1208.3905312499999,360.3448587417602L1225.9034375,61.96489868164062L1243.41634375,97.67754058837892L1260.92925,110.47187347412108L1278.44215625,57.321626281738276L1295.9550625,67.61610794067383L1313.46796875,81.36541519165038L1330.980875,-36.68267669677731L1348.49378125,84.12699508666992L1366.0066875,179.09867935180665L1383.51959375,49.71525115966795L1401.0324999999998,37.574038696289044L1418.54540625,135.9110107421875L1436.0583125,-103.7851165771484L1453.5712187499998,33.97255325317383L1471.0841249999999,490.5638113439083L1488.59703125,139.29637908935547L1506.1099375,185.37407150268555L1523.62284375,38.78518371582033L1541.13575,181.87725601196288L1558.64865625,200.85288925170897L1576.1615625,203.74445495605468L1593.67446875,13.915796661376962L1611.187375,105.22363815307617L1628.70028125,32.54471740722656L1646.2131875,104.77892532348633L1663.7260937499998,76.78554000854493L1681.239,93.3825584411621L1698.75190625,214.70182838439942L1716.2648124999998,51.35400466918947L1733.7777187499998,-6.88189697265625L1751.290625,165.976961517334L1768.8035312499999,164.3670738220215L1786.3164375,45.47871780395508L1803.82934375,123.0145179748535L1821.34225,85.90211715698243L1838.85515625,79.63325119018555L1856.3680625,37.793418884277344L1873.88096875,137.99049682617186L1891.393875,414.4912633895874L1908.90678125,350.39321689605714L1926.4196874999998,109.15469589233399L1943.93259375,205.21137619018555L1961.4455,128.7990837097168L1978.9584062499998,219.1833984375L1996.4713124999998,78.37014770507812L2013.98421875,427.02600116729735" style="fill: none;" fill="none"></path></g><g><path stroke="rgb(255, 112, 67)" stroke-width="2px" d="M175.12906249999997,33.264318847656256L192.64196875,104.73331375122069" style="fill: none;" fill="none"></path></g></g></g></g></g></g><g transform="translate(30, 376)" clip-path="url(#clip_1)"><clipPath id="clip_1"><rect width="2101" height="24"></rect></clipPath><g><g><line x1="0" y1="0" x2="0" y2="5" style="visibility: inherit;" fill="rgb(0, 0, 0)" stroke="rgb(204, 204, 204)" stroke-width="1px"></line><line x1="175.12906249999997" y1="0" x2="175.12906249999997" y2="5" style="visibility: inherit;" fill="rgb(0, 0, 0)" stroke="rgb(204, 204, 204)" stroke-width="1px"></line><line x1="350.25812499999995" y1="0" x2="350.25812499999995" y2="5" style="visibility: inherit;" fill="rgb(0, 0, 0)" stroke="rgb(204, 204, 204)" stroke-width="1px"></line><line x1="525.3871875" y1="0" x2="525.3871875" y2="5" style="visibility: inherit;" fill="rgb(0, 0, 0)" stroke="rgb(204, 204, 204)" stroke-width="1px"></line><line x1="700.5162499999999" y1="0" x2="700.5162499999999" y2="5" style="visibility: inherit;" fill="rgb(0, 0, 0)" stroke="rgb(204, 204, 204)" stroke-width="1px"></line><line x1="875.6453125" y1="0" x2="875.6453125" y2="5" style="visibility: inherit;" fill="rgb(0, 0, 0)" stroke="rgb(204, 204, 204)" stroke-width="1px"></line><line x1="1050.774375" y1="0" x2="1050.774375" y2="5" style="visibility: inherit;" fill="rgb(0, 0, 0)" stroke="rgb(204, 204, 204)" stroke-width="1px"></line><line x1="1225.9034375" y1="0" x2="1225.9034375" y2="5" style="visibility: inherit;" fill="rgb(0, 0, 0)" stroke="rgb(204, 204, 204)" stroke-width="1px"></line><line x1="1401.0324999999998" y1="0" x2="1401.0324999999998" y2="5" style="visibility: inherit;" fill="rgb(0, 0, 0)" stroke="rgb(204, 204, 204)" stroke-width="1px"></line><line x1="1576.1615625" y1="0" x2="1576.1615625" y2="5" style="visibility: inherit;" fill="rgb(0, 0, 0)" stroke="rgb(204, 204, 204)" stroke-width="1px"></line><line x1="1751.290625" y1="0" x2="1751.290625" y2="5" style="visibility: inherit;" fill="rgb(0, 0, 0)" stroke="rgb(204, 204, 204)" stroke-width="1px"></line><line x1="1926.4196874999998" y1="0" x2="1926.4196874999998" y2="5" style="visibility: inherit;" fill="rgb(0, 0, 0)" stroke="rgb(204, 204, 204)" stroke-width="1px"></line><line x1="2101.54875" y1="0" x2="2101.54875" y2="5" style="visibility: inherit;" fill="rgb(0, 0, 0)" stroke="rgb(204, 204, 204)" stroke-width="1px"></line></g><g transform="translate(0, 8)"><text x="0" y="0" dx="0em" dy="0.95em" style="text-anchor: middle; visibility: hidden; font-family: Roboto, sans-serif; font-size: 12px; font-weight: 200;" fill="rgb(50, 49, 63)" stroke="none" stroke-width="1px">-10</text><text x="175.12906249999997" y="0" dx="0em" dy="0.95em" style="text-anchor: middle; visibility: inherit; font-family: Roboto, sans-serif; font-size: 12px; font-weight: 200;" fill="rgb(50, 49, 63)" stroke="none" stroke-width="1px">0</text><text x="350.25812499999995" y="0" dx="0em" dy="0.95em" style="text-anchor: middle; visibility: inherit; font-family: Roboto, sans-serif; font-size: 12px; font-weight: 200;" fill="rgb(50, 49, 63)" stroke="none" stroke-width="1px">10</text><text x="525.3871875" y="0" dx="0em" dy="0.95em" style="text-anchor: middle; visibility: inherit; font-family: Roboto, sans-serif; font-size: 12px; font-weight: 200;" fill="rgb(50, 49, 63)" stroke="none" stroke-width="1px">20</text><text x="700.5162499999999" y="0" dx="0em" dy="0.95em" style="text-anchor: middle; visibility: inherit; font-family: Roboto, sans-serif; font-size: 12px; font-weight: 200;" fill="rgb(50, 49, 63)" stroke="none" stroke-width="1px">30</text><text x="875.6453125" y="0" dx="0em" dy="0.95em" style="text-anchor: middle; visibility: inherit; font-family: Roboto, sans-serif; font-size: 12px; font-weight: 200;" fill="rgb(50, 49, 63)" stroke="none" stroke-width="1px">40</text><text x="1050.774375" y="0" dx="0em" dy="0.95em" style="text-anchor: middle; visibility: inherit; font-family: Roboto, sans-serif; font-size: 12px; font-weight: 200;" fill="rgb(50, 49, 63)" stroke="none" stroke-width="1px">50</text><text x="1225.9034375" y="0" dx="0em" dy="0.95em" style="text-anchor: middle; visibility: inherit; font-family: Roboto, sans-serif; font-size: 12px; font-weight: 200;" fill="rgb(50, 49, 63)" stroke="none" stroke-width="1px">60</text><text x="1401.0324999999998" y="0" dx="0em" dy="0.95em" style="text-anchor: middle; visibility: inherit; font-family: Roboto, sans-serif; font-size: 12px; font-weight: 200;" fill="rgb(50, 49, 63)" stroke="none" stroke-width="1px">70</text><text x="1576.1615625" y="0" dx="0em" dy="0.95em" style="text-anchor: middle; visibility: inherit; font-family: Roboto, sans-serif; font-size: 12px; font-weight: 200;" fill="rgb(50, 49, 63)" stroke="none" stroke-width="1px">80</text><text x="1751.290625" y="0" dx="0em" dy="0.95em" style="text-anchor: middle; visibility: inherit; font-family: Roboto, sans-serif; font-size: 12px; font-weight: 200;" fill="rgb(50, 49, 63)" stroke="none" stroke-width="1px">90</text><text x="1926.4196874999998" y="0" dx="0em" dy="0.95em" style="text-anchor: middle; visibility: inherit; font-family: Roboto, sans-serif; font-size: 12px; font-weight: 200;" fill="rgb(50, 49, 63)" stroke="none" stroke-width="1px">100</text><text x="2101.54875" y="0" dx="0em" dy="0.95em" style="text-anchor: middle; visibility: hidden; font-family: Roboto, sans-serif; font-size: 12px; font-weight: 200;" fill="rgb(50, 49, 63)" stroke="none" stroke-width="1px">110</text></g><line x1="0" y1="0" x2="2101.54875" y2="0" fill="rgb(0, 0, 0)" stroke="rgb(204, 204, 204)" stroke-width="1px"></line></g></g></g></g></svg>