<svg viewBox="0 0 2132.33349609375 400" xmlns="http://www.w3.org/2000/svg"><g><g><g><g><g><line x1="51.5625" y1="376" x2="46.5625" y2="376" style="visibility: inherit;" fill="rgb(0, 0, 0)" stroke="rgb(204, 204, 204)" stroke-width="1px"></line><line x1="51.5625" y1="329" x2="46.5625" y2="329" style="visibility: inherit;" fill="rgb(0, 0, 0)" stroke="rgb(204, 204, 204)" stroke-width="1px"></line><line x1="51.5625" y1="282" x2="46.5625" y2="282" style="visibility: inherit;" fill="rgb(0, 0, 0)" stroke="rgb(204, 204, 204)" stroke-width="1px"></line><line x1="51.5625" y1="235" x2="46.5625" y2="235" style="visibility: inherit;" fill="rgb(0, 0, 0)" stroke="rgb(204, 204, 204)" stroke-width="1px"></line><line x1="51.5625" y1="188" x2="46.5625" y2="188" style="visibility: inherit;" fill="rgb(0, 0, 0)" stroke="rgb(204, 204, 204)" stroke-width="1px"></line><line x1="51.5625" y1="141" x2="46.5625" y2="141" style="visibility: inherit;" fill="rgb(0, 0, 0)" stroke="rgb(204, 204, 204)" stroke-width="1px"></line><line x1="51.5625" y1="94" x2="46.5625" y2="94" style="visibility: inherit;" fill="rgb(0, 0, 0)" stroke="rgb(204, 204, 204)" stroke-width="1px"></line><line x1="51.5625" y1="47" x2="46.5625" y2="47" style="visibility: inherit;" fill="rgb(0, 0, 0)" stroke="rgb(204, 204, 204)" stroke-width="1px"></line><line x1="51.5625" y1="0" x2="46.5625" y2="0" style="visibility: inherit;" fill="rgb(0, 0, 0)" stroke="rgb(204, 204, 204)" stroke-width="1px"></line></g><g transform="translate(41.5625, 0)"><text x="0" y="376" dx="0em" dy="0.3em" style="text-anchor: end; visibility: hidden; font-family: Roboto, sans-serif; font-size: 12px; font-weight: 200;" fill="rgb(50, 49, 63)" stroke="none" stroke-width="1px">9</text><text x="0" y="329" dx="0em" dy="0.3em" style="text-anchor: end; visibility: inherit; font-family: Roboto, sans-serif; font-size: 12px; font-weight: 200;" fill="rgb(50, 49, 63)" stroke="none" stroke-width="1px">9.5</text><text x="0" y="282" dx="0em" dy="0.3em" style="text-anchor: end; visibility: inherit; font-family: Roboto, sans-serif; font-size: 12px; font-weight: 200;" fill="rgb(50, 49, 63)" stroke="none" stroke-width="1px">10</text><text x="0" y="235" dx="0em" dy="0.3em" style="text-anchor: end; visibility: inherit; font-family: Roboto, sans-serif; font-size: 12px; font-weight: 200;" fill="rgb(50, 49, 63)" stroke="none" stroke-width="1px">10.5</text><text x="0" y="188" dx="0em" dy="0.3em" style="text-anchor: end; visibility: inherit; font-family: Roboto, sans-serif; font-size: 12px; font-weight: 200;" fill="rgb(50, 49, 63)" stroke="none" stroke-width="1px">11</text><text x="0" y="141" dx="0em" dy="0.3em" style="text-anchor: end; visibility: inherit; font-family: Roboto, sans-serif; font-size: 12px; font-weight: 200;" fill="rgb(50, 49, 63)" stroke="none" stroke-width="1px">11.5</text><text x="0" y="94" dx="0em" dy="0.3em" style="text-anchor: end; visibility: inherit; font-family: Roboto, sans-serif; font-size: 12px; font-weight: 200;" fill="rgb(50, 49, 63)" stroke="none" stroke-width="1px">12</text><text x="0" y="47" dx="0em" dy="0.3em" style="text-anchor: end; visibility: inherit; font-family: Roboto, sans-serif; font-size: 12px; font-weight: 200;" fill="rgb(50, 49, 63)" stroke="none" stroke-width="1px">12.5</text><text x="0" y="0" dx="0em" dy="0.3em" style="text-anchor: end; visibility: hidden; font-family: Roboto, sans-serif; font-size: 12px; font-weight: 200;" fill="rgb(50, 49, 63)" stroke="none" stroke-width="1px">13</text></g><line x1="51.5625" y1="0" x2="51.5625" y2="376" fill="rgb(0, 0, 0)" stroke="rgb(204, 204, 204)" stroke-width="1px"></line></g></g><g transform="translate(51, 0)" clip-path="url(#clip_0)"><clipPath id="clip_0"><rect width="2080" height="376"></rect></clipPath><g><g><g><line x1="0" y1="0" x2="0" y2="376" fill="rgb(0, 0, 0)" stroke="rgb(60, 60, 60)" stroke-width="1px" opacity="0.25"></line><line x1="173.39729166666666" y1="0" x2="173.39729166666666" y2="376" fill="rgb(0, 0, 0)" stroke="rgb(60, 60, 60)" stroke-width="1px" opacity="0.25"></line><line x1="346.7945833333333" y1="0" x2="346.7945833333333" y2="376" fill="rgb(0, 0, 0)" stroke="rgb(60, 60, 60)" stroke-width="1px" opacity="0.25"></line><line x1="520.191875" y1="0" x2="520.191875" y2="376" fill="rgb(0, 0, 0)" stroke="rgb(60, 60, 60)" stroke-width="1px" opacity="0.25"></line><line x1="693.5891666666666" y1="0" x2="693.5891666666666" y2="376" fill="rgb(0, 0, 0)" stroke="rgb(60, 60, 60)" stroke-width="1px" opacity="0.25"></line><line x1="866.9864583333333" y1="0" x2="866.9864583333333" y2="376" fill="rgb(0, 0, 0)" stroke="rgb(60, 60, 60)" stroke-width="1px" opacity="0.25"></line><line x1="1040.38375" y1="0" x2="1040.38375" y2="376" fill="rgb(0, 0, 0)" stroke="rgb(60, 60, 60)" stroke-width="1px" opacity="0.25"></line><line x1="1213.7810416666666" y1="0" x2="1213.7810416666666" y2="376" fill="rgb(0, 0, 0)" stroke="rgb(60, 60, 60)" stroke-width="1px" opacity="0.25"></line><line x1="1387.1783333333333" y1="0" x2="1387.1783333333333" y2="376" fill="rgb(0, 0, 0)" stroke="rgb(60, 60, 60)" stroke-width="1px" opacity="0.25"></line><line x1="1560.575625" y1="0" x2="1560.575625" y2="376" fill="rgb(0, 0, 0)" stroke="rgb(60, 60, 60)" stroke-width="1px" opacity="0.25"></line><line x1="1733.9729166666666" y1="0" x2="1733.9729166666666" y2="376" fill="rgb(0, 0, 0)" stroke="rgb(60, 60, 60)" stroke-width="1px" opacity="0.25"></line><line x1="1907.3702083333333" y1="0" x2="1907.3702083333333" y2="376" fill="rgb(0, 0, 0)" stroke="rgb(60, 60, 60)" stroke-width="1px" opacity="0.25"></line><line x1="2080.7675" y1="0" x2="2080.7675" y2="376" fill="rgb(0, 0, 0)" stroke="rgb(60, 60, 60)" stroke-width="1px" opacity="0.25"></line></g><g><line x1="0" y1="376" x2="2080.7675" y2="376" fill="rgb(0, 0, 0)" stroke="rgb(60, 60, 60)" stroke-width="1px" opacity="0.25"></line><line x1="0" y1="329" x2="2080.7675" y2="329" fill="rgb(0, 0, 0)" stroke="rgb(60, 60, 60)" stroke-width="1px" opacity="0.25"></line><line x1="0" y1="282" x2="2080.7675" y2="282" fill="rgb(0, 0, 0)" stroke="rgb(60, 60, 60)" stroke-width="1px" opacity="0.25"></line><line x1="0" y1="235" x2="2080.7675" y2="235" fill="rgb(0, 0, 0)" stroke="rgb(60, 60, 60)" stroke-width="1px" opacity="0.25"></line><line x1="0" y1="188" x2="2080.7675" y2="188" fill="rgb(0, 0, 0)" stroke="rgb(60, 60, 60)" stroke-width="1px" opacity="0.25"></line><line x1="0" y1="141" x2="2080.7675" y2="141" fill="rgb(0, 0, 0)" stroke="rgb(60, 60, 60)" stroke-width="1px" opacity="0.25"></line><line x1="0" y1="94" x2="2080.7675" y2="94" fill="rgb(0, 0, 0)" stroke="rgb(60, 60, 60)" stroke-width="1px" opacity="0.25"></line><line x1="0" y1="47" x2="2080.7675" y2="47" fill="rgb(0, 0, 0)" stroke="rgb(60, 60, 60)" stroke-width="1px" opacity="0.25"></line><line x1="0" y1="0" x2="2080.7675" y2="0" fill="rgb(0, 0, 0)" stroke="rgb(60, 60, 60)" stroke-width="1px" opacity="0.25"></line></g></g></g><g><g><line x1="0" y1="1222" x2="2080.7675" y2="1222" fill="rgb(0, 0, 0)" stroke="rgb(153, 153, 153)" stroke-width="1.5px"></line></g></g><g><g><line x1="173.39729166666666" y1="0" x2="173.39729166666666" y2="376" fill="rgb(0, 0, 0)" stroke="rgb(153, 153, 153)" stroke-width="1.5px"></line></g></g><g><g><g><g><g><path stroke="rgb(0, 153, 136)" stroke-width="2px" d="M173.39729166666666,314.33177375793457L190.7370208333333,300.14192717905337L208.07675,272.09958098040863L225.41647916666668,282.69747314712805L242.75620833333332,285.07969376328623L260.0959375,292.1811396450937L277.43566666666663,301.83779314551936L294.77539583333333,300.8228479744004L312.115125,293.3145264305439L329.4548541666666,303.9049520989885L346.7945833333333,298.2455742484934L364.13431249999996,296.3460688511886L381.4740416666666,302.0941084645259L398.81377083333336,309.775567778348L416.1535,314.69509153111517L433.49322916666665,321.52963548069005L450.83295833333335,324.8856496900608L468.1726875,325.9520825376965L485.51241666666664,324.13243834198806L502.85214583333334,325.8949437476895L520.191875,327.6377999264871L537.5316041666667,328.45593891210774L554.8713333333333,327.37797640387134L572.2110625,328.23446143406983L589.5507916666667,329.25280270159914L606.8905208333333,322.25742740169136L624.23025,322.00049765389167L641.5699791666667,324.12664227987506L658.9097083333332,325.4879689005876L676.2494375,326.17915813468994L693.5891666666666,325.12788364891827L710.9288958333333,325.8308392943933L728.2686249999999,327.64012317823733L745.6083541666667,329.76942419862024L762.9480833333332,329.2509754633481L780.2878125,329.39071610484365L797.6275416666667,333.9880421362174L814.9672708333333,335.5652619007648L832.307,335.62630932478885L849.6467291666667,336.40993279560433L866.9864583333333,338.84327423988407L884.3261875,340.57965743871426L901.6659166666667,339.56858557648457L919.0056458333332,338.92413156398055L936.345375,339.0080786916333L953.6851041666666,339.41348223318846L971.0248333333333,338.95895980083475L988.3645624999999,337.58668268631305L1005.7042916666667,339.1300653347988L1023.0440208333332,340.53452866469064L1040.38375,340.8765838717099L1057.7234791666665,340.9038314995997L1075.0632083333335,339.3393574357052" style="fill: none;" fill="none"></path></g><g><path stroke="rgb(238, 51, 119)" stroke-width="2px" d="M173.39729166666666,222.5711154937744L190.7370208333333,252.90906030692628L208.07675,210.04126999622147L225.41647916666668,228.4468189967056L242.75620833333332,246.35947891695258L260.0959375,248.1954026116915L277.43566666666663,261.3897968030681L294.77539583333333,262.2037528904677L312.115125,260.0087955586244L329.4548541666666,259.7344802801892L346.7945833333333,267.79860471538933L364.13431249999996,275.5633303043472L381.4740416666666,271.55334847485165L398.81377083333336,274.25623271282456L416.1535,280.22575482221345L433.49322916666665,283.99202600248793L450.83295833333335,284.1855968820294L468.1726875,286.7552164131981L485.51241666666664,286.49286038606704L502.85214583333334,289.9325022480287L520.191875,290.16513609951636L537.5316041666667,293.74113515569223L554.8713333333333,296.6533417577287L572.2110625,299.84925892505765L589.5507916666667,300.71015009780933L606.8905208333333,301.65693029508776L624.23025,304.900205072953L641.5699791666667,304.9502916386238L658.9097083333332,306.3766836806159L676.2494375,304.19573606204546L693.5891666666666,303.8704565808586L710.9288958333333,307.7953078429476L728.2686249999999,307.70488989378146L745.6083541666667,310.3579273281133L762.9480833333332,311.9558632285983L780.2878125,315.08002302553757L797.6275416666667,317.3824896571671L814.9672708333333,319.1826516347076L832.307,319.24767688103844L849.6467291666667,319.31623274541863L866.9864583333333,322.15879737063756L884.3261875,321.4958828796173L901.6659166666667,321.8525357257755L919.0056458333332,323.70951335292324L936.345375,325.556023906779L953.6851041666666,326.66335079367406L971.0248333333333,326.447892666459L988.3645624999999,327.6142894274981L1005.7042916666667,328.4246501275728L1023.0440208333332,327.84390528159804" style="fill: none;" fill="none"></path></g><g><path stroke="rgb(51, 187, 238)" stroke-width="2px" d="M173.39729166666666,123.40377616882324L190.7370208333333,153.3212980248286L208.07675,195.4848600009865L225.41647916666668,218.08027577326948L242.75620833333332,212.6225104102L260.0959375,208.9698337376561L277.43566666666663,230.0910641030127L294.77539583333333,242.54032220016896L312.115125,251.6126446128818L329.4548541666666,247.44273804082437L346.7945833333333,249.06346834597733L364.13431249999996,252.35854881571223L381.4740416666666,252.4248849363969L398.81377083333336,257.3170679582276L416.1535,263.1026072529126L433.49322916666665,266.10005403947736L450.83295833333335,269.7861147906924L468.1726875,272.7595101598828L485.51241666666664,277.0857638003581L502.85214583333334,279.04387435423376L520.191875,276.7456051792137L537.5316041666667,276.2025540078204L554.8713333333333,278.45981713033603L572.2110625,279.3409415512734" style="fill: none;" fill="none"></path></g><g><path stroke="rgb(204, 51, 17)" stroke-width="2px" d="M173.39729166666666,171.95069694519043L190.7370208333333,209.3882962074534L208.07675,215.62563851995804L225.41647916666668,208.18099932847855L242.75620833333332,222.86784229129862L260.0959375,238.87917358523072L277.43566666666663,255.3756989314931L294.77539583333333,253.00734088194554L312.115125,255.8266435134261L329.4548541666666,256.4901506223032L346.7945833333333,261.3782200331078L364.13431249999996,260.64456913881105L381.4740416666666,261.08722382959945L398.81377083333336,278.1885819387982L416.1535,284.6489654042228L433.49322916666665,280.22672780032656L450.83295833333335,285.36273830441644L468.1726875,285.51336321521245L485.51241666666664,284.1248245978936L502.85214583333334,285.00269923211005L520.191875,283.90404921597366L537.5316041666667,284.51372672876977L554.8713333333333,285.10446962539373L572.2110625,288.35660274453915L589.5507916666667,290.06147719837924L606.8905208333333,285.30117621519963L624.23025,285.94055322135483L641.5699791666667,286.849501570104L658.9097083333332,289.54802462368883L676.2494375,292.745981452489L693.5891666666666,292.77543194942973L710.9288958333333,295.45236235087503L728.2686249999999,296.5326587649769L745.6083541666667,296.83398324816477L762.9480833333332,298.4804559665796L780.2878125,298.05989994335215L797.6275416666667,298.57000067162716L814.9672708333333,299.8312731176764L832.307,300.20756159114353L849.6467291666667,300.59487947040674L866.9864583333333,302.4151192637663L884.3261875,304.043762079149L901.6659166666667,303.86693838776165L919.0056458333332,302.1731865254037L936.345375,296.98161067046516L953.6851041666666,298.30913548127484L971.0248333333333,299.19833373996727L988.3645624999999,298.3820241237686L1005.7042916666667,299.7911537833595L1023.0440208333332,299.24623168992133L1040.38375,299.2748219822365L1057.7234791666665,300.14571850827565L1075.0632083333335,299.8514844531405" style="fill: none;" fill="none"></path></g><g><path stroke="rgb(0, 119, 187)" stroke-width="2px" d="M173.39729166666666,125.85270881652832L190.7370208333333,184.67389415894036L208.07675,213.51480990013715L225.41647916666668,241.4521057693965L242.75620833333332,242.41144148765449L260.0959375,249.24179639891705L277.43566666666663,251.48982850029728L294.77539583333333,260.8270733320242L312.115125,258.5917434358762L329.4548541666666,263.5961973995299L346.7945833333333,259.96535256636815L364.13431249999996,262.3975710223696L381.4740416666666,260.2421080498976L398.81377083333336,257.70389103106817L416.1535,242.5403116183297L433.49322916666665,241.9163403743188L450.83295833333335,240.93010417836746L468.1726875,241.62964140337266L485.51241666666664,243.33021669585102L502.85214583333334,243.46823779666875L520.191875,242.30973127839763L537.5316041666667,240.2335689276556L554.8713333333333,241.02350480574628L572.2110625,242.59462722269262L589.5507916666667,241.33158063381725L606.8905208333333,241.96408277227385L624.23025,243.57145989015254L641.5699791666667,238.886584491918L658.9097083333332,237.51399960421026L676.2494375,239.55297639739447L693.5891666666666,239.90092418721116L710.9288958333333,243.36103237540016L728.2686249999999,243.45745341279837L745.6083541666667,242.3000449482898L762.9480833333332,243.3306838755357L780.2878125,245.69706799767522L797.6275416666667,245.30393326042903L814.9672708333333,241.75457512681274L832.307,243.34843547190812L849.6467291666667,244.48855053694356L866.9864583333333,245.3536367938553L884.3261875,245.1777668041261L901.6659166666667,246.1888504684307L919.0056458333332,241.4861913590688L936.345375,242.80774707901537L953.6851041666666,242.08988490360093L971.0248333333333,241.80190533021494L988.3645624999999,237.33736370059447L1005.7042916666667,236.84873006384916L1023.0440208333332,237.78330887983577L1040.38375,238.44159159260906L1057.7234791666665,238.57108381651295L1075.0632083333335,237.72983465955605L1092.4029375,237.14211515798857L1109.7426666666665,235.91990028898627L1127.0823958333333,236.58940472946114L1144.422125,237.7558827721382L1161.7618541666666,237.67618721742366L1179.1015833333333,237.61666134232115L1196.4413124999999,238.5550864245194L1213.7810416666666,238.85123525660737L1231.1207708333334,239.71597449783545L1248.4605,240.88987676199957L1265.8002291666664,242.2993544036652L1283.1399583333334,242.57463378243034L1300.4796875,241.4495450233229L1317.8194166666665,242.18061714472887L1335.1591458333335,242.99234047628573L1352.498875,244.25862343997227L1369.8386041666665,244.38864258683358" style="fill: none;" fill="none"></path></g><g><path style="fill: none;" fill="none" stroke="none" stroke-width="1px"></path></g><g><path stroke="rgb(187, 187, 187)" stroke-width="2px" d="M208.07675,-26.90938223762715L225.41647916666668,24.364963559252605L242.75620833333332,49.800547211456085L260.0959375,32.02551752902285L277.43566666666663,30.26757387096373L294.77539583333333,42.26943792915761L312.115125,36.22462854232792L329.4548541666666,59.296146171203816L346.7945833333333,71.40667229958763L364.13431249999996,68.66009165586576L381.4740416666666,72.18056412900776L398.81377083333336,70.4052090233291L416.1535,52.40304032281607L433.49322916666665,54.54135614560194L450.83295833333335,64.65981968148557L468.1726875,64.34579427095177L485.51241666666664,57.006106655236394L502.85214583333334,56.41120600434991L520.191875,45.85691401090122L537.5316041666667,45.51062527147771L554.8713333333333,42.89119459138166L572.2110625,46.19770412173692L589.5507916666667,50.04506447200575L606.8905208333333,50.32987632353813L624.23025,49.22499283190116L641.5699791666667,48.459702732791875L658.9097083333332,48.86631875307573L676.2494375,52.264396554461285L693.5891666666666,51.98808290307788L710.9288958333333,55.671733913416084L728.2686249999999,56.14822064716924L745.6083541666667,50.665973679285635L762.9480833333332,53.796376209214145L780.2878125,54.02886778907683L797.6275416666667,56.786366524977L814.9672708333333,55.25039580074149L832.307,54.78115277836177L849.6467291666667,55.68301749728004L866.9864583333333,55.38860684489947L884.3261875,56.93872517531675L901.6659166666667,59.2455727934445L919.0056458333332,59.10221350594276L936.345375,59.4762725611664L953.6851041666666,59.370984881852316L971.0248333333333,54.16289942304381L988.3645624999999,54.06925730008537L1005.7042916666667,53.7283188908094L1023.0440208333332,53.38476508147558" style="fill: none;" fill="none"></path></g><g><path stroke="rgb(0, 153, 136)" stroke-width="2px" d="M173.39729166666666,180.75934219360352L190.7370208333333,178.6375404021898L208.07675,191.73003477326L225.41647916666668,187.42443953004138L242.75620833333332,174.59788870123248L260.0959375,149.48176807128436L277.43566666666663,164.8058543394654L294.77539583333333,165.68368223866133L312.115125,159.8146440395384L329.4548541666666,159.92675970972502L346.7945833333333,163.62299169851477L364.13431249999996,164.7365306911141L381.4740416666666,169.20342851851962L398.81377083333336,172.3341676283668L416.1535,175.18357850942618L433.49322916666665,176.6261862511986L450.83295833333335,180.25997211913892L468.1726875,177.67513879254645L485.51241666666664,181.2215486484083L502.85214583333334,178.57878603521934L520.191875,181.72893832766147L537.5316041666667,185.19975675595447L554.8713333333333,188.65219783335263L572.2110625,189.82801429314492" style="fill: none;" fill="none"></path></g><g><path stroke="rgb(238, 51, 119)" stroke-width="2px" d="M173.39729166666666,78.30703735351562L190.7370208333333,123.1075318924564L208.07675,134.0581031670652L225.41647916666668,160.85944983193244L242.75620833333332,169.47637645388437L260.0959375,158.35737814401924L277.43566666666663,172.15865657553917L294.77539583333333,170.11838595755538L312.115125,179.18483128680157L329.4548541666666,186.50258719731042L346.7945833333333,185.31130628206802L364.13431249999996,193.05673510020625L381.4740416666666,196.16862664899034L398.81377083333336,195.23745425915087L416.1535,195.97999717999602L433.49322916666665,195.92423960887209L450.83295833333335,194.09353368897845L468.1726875,193.0034992817993L485.51241666666664,193.25536208298672L502.85214583333334,197.2412268476137L520.191875,199.106626906247L537.5316041666667,202.31082076445517L554.8713333333333,203.7966108614947L572.2110625,206.92294864990075L589.5507916666667,210.60065045211388L606.8905208333333,207.13311558971586L624.23025,205.36384035654507L641.5699791666667,206.7984006995538L658.9097083333332,208.6648332292067L676.2494375,210.45394767588476L693.5891666666666,210.23267109370417L710.9288958333333,212.06744599873127L728.2686249999999,213.72968074183072L745.6083541666667,216.30571187355866L762.9480833333332,215.91374844471358L780.2878125,216.51235016850805L797.6275416666667,217.57823639197875L814.9672708333333,218.74012562117034L832.307,220.08322769871262L849.6467291666667,221.85950136779124L866.9864583333333,223.22341964063742L884.3261875,224.81794624224133L901.6659166666667,223.88888573490138L919.0056458333332,225.50753002781832L936.345375,227.48282199301195L953.6851041666666,226.75559372712678L971.0248333333333,227.4845941957758L988.3645624999999,229.14555447317915L1005.7042916666667,230.40652170499717L1023.0440208333332,231.273230852527L1040.38375,230.59149114481446L1057.7234791666665,231.9092579257204" style="fill: none;" fill="none"></path></g><g><path stroke="rgb(51, 187, 238)" stroke-width="2px" d="M173.39729166666666,202.45818710327148L190.7370208333333,177.11262476520258L208.07675,154.63019664208136L225.41647916666668,172.64879533928826L242.75620833333332,186.24960196253647L260.0959375,183.95750070168043L277.43566666666663,184.74014810984755L294.77539583333333,199.6145865784355L312.115125,209.11273379788085L329.4548541666666,207.12530561500014L346.7945833333333,214.3357329840802L364.13431249999996,210.06874832802924L381.4740416666666,211.4028319097756L398.81377083333336,214.7811992947353L416.1535,216.8092598846707L433.49322916666665,216.89642886931082L450.83295833333335,219.49304522950783L468.1726875,219.75989006487114L485.51241666666664,223.66640516554588L502.85214583333334,225.20761550643826L520.191875,229.90362507264618L537.5316041666667,233.7670053048909L554.8713333333333,234.5215182160589L572.2110625,234.50723033369977L589.5507916666667,239.94629205724308L606.8905208333333,239.79942736266003L624.23025,242.98604759920752L641.5699791666667,236.9438589013263L658.9097083333332,238.96216044375922L676.2494375,238.13467598958937L693.5891666666666,240.6092652208654L710.9288958333333,240.9746595662494L728.2686249999999,242.93343544238988L745.6083541666667,248.27770689174784L762.9480833333332,246.21740698506184L780.2878125,247.9779795914344L797.6275416666667,248.9063302316526L814.9672708333333,252.11278029306493L832.307,254.54895546107448L849.6467291666667,257.4434273172477L866.9864583333333,258.4715782964511L884.3261875,257.4326706695212L901.6659166666667,257.28341105050646L919.0056458333332,256.8762124379232L936.345375,256.8946111743768L953.6851041666666,255.94594138531187L971.0248333333333,256.4584207806467L988.3645624999999,256.53599438493586L1005.7042916666667,257.3846960476913L1023.0440208333332,256.11602579719084L1040.38375,254.81708542478577L1057.7234791666665,254.51048917326517L1075.0632083333335,254.96236399356206L1092.4029375,253.35633442827537L1109.7426666666665,253.48088637927134L1127.0823958333333,254.45473444294586L1144.422125,251.7624963289535L1161.7618541666666,251.2503213557064L1179.1015833333333,250.3197212700977L1196.4413124999999,250.12051469341412L1213.7810416666666,250.98159362328965L1231.1207708333334,251.8396393416782L1248.4605,250.71982820153127L1265.8002291666664,251.5468955609857L1283.1399583333334,250.23774302035778L1300.4796875,249.02717068457918L1317.8194166666665,247.76118762261342L1335.1591458333335,247.95511075029287L1352.498875,247.5545620881819L1369.8386041666665,247.13149731103863L1387.1783333333333,247.5883845257348L1404.5180625,248.645220840604L1421.8577916666666,249.58431446422094L1439.1975208333333,248.5727077279376L1456.5372499999999,248.26449468939012L1473.8769791666666,247.25762088057996L1491.2167083333334,247.24290618585877L1508.5564375,245.42781153311802L1525.8961666666664,245.90366711214745L1543.2358958333334,245.48749982178362L1560.575625,245.7861960856393L1577.9153541666665,245.2329674135927L1595.2550833333335,244.25203108365653L1612.5948125,245.18492718167857L1629.9345416666665,244.94234121203448L1647.2742708333333,245.28938784004555L1664.614,244.0606929503349L1681.9537291666666,243.82376334319787L1699.2934583333333,244.12855639355627L1716.6331874999998,243.65246995843032L1733.9729166666666,243.88456328009397L1751.3126458333334,243.78293752430497L1768.652375,244.05727878405747L1785.9921041666664,244.2218996992027L1803.3318333333334,244.4039692445144L1820.6715625,245.45575257784415L1838.0112916666665,246.17794818618626L1855.3510208333335,245.12945636329917L1872.69075,245.77452931120416L1890.0304791666665,246.54712729443156" style="fill: none;" fill="none"></path></g><g><path stroke="rgb(204, 51, 17)" stroke-width="2px" d="M173.39729166666666,107.8028793334961L190.7370208333333,147.03890225979973L208.07675,33.00829450163772L225.41647916666668,110.77108558303945L242.75620833333332,131.05706761869445L260.0959375,127.48840000993317L277.43566666666663,140.04380034977353L294.77539583333333,167.42173265632223L312.115125,175.2812701657072L329.4548541666666,195.2060996030541L346.7945833333333,201.4843969221378L364.13431249999996,204.11739956905905L381.4740416666666,209.8543443559302L398.81377083333336,212.94066113809143L416.1535,214.23822177523198L433.49322916666665,219.48898159066331L450.83295833333335,222.58532489646313L468.1726875,227.944904855274L485.51241666666664,226.12629052568204L502.85214583333334,233.07586598064194L520.191875,236.61772337345548L537.5316041666667,235.02631661727426L554.8713333333333,238.45735805588671L572.2110625,242.4978249329094L589.5507916666667,235.74418332712702L606.8905208333333,237.65057882703655L624.23025,236.81242796945088L641.5699791666667,241.06036385272836L658.9097083333332,240.6376892493777L676.2494375,242.29496806854536L693.5891666666666,241.90698567015693L710.9288958333333,242.313158096657L728.2686249999999,243.35973328126724L745.6083541666667,245.15020153177892L762.9480833333332,243.32000627146581L780.2878125,245.12532592881223L797.6275416666667,247.25610061834396L814.9672708333333,248.1489133980876L832.307,249.2820493159044L849.6467291666667,252.33584693303627L866.9864583333333,256.23528556167804L884.3261875,257.41094764337686L901.6659166666667,257.99645602248637L919.0056458333332,258.00582927794744L936.345375,257.447064215065L953.6851041666666,256.4567233912868L971.0248333333333,256.9717753330943L988.3645624999999,261.0911455248616L1005.7042916666667,261.68061461998406L1023.0440208333332,261.976581474235L1040.38375,260.9184313225189L1057.7234791666665,262.71760165754233" style="fill: none;" fill="none"></path></g><g><path stroke="rgb(0, 119, 187)" stroke-width="2px" d="M173.39729166666666,233.75554275512695L190.7370208333333,233.21282716819331L208.07675,240.6790866578575L225.41647916666668,262.4602995210115L242.75620833333332,58.35660799220278L260.0959375,82.27417636251867L277.43566666666663,-2.869653035155295L294.77539583333333,32.14421667267657L312.115125,59.37493998433216L329.4548541666666,76.54721203624949L346.7945833333333,91.63729676521245L364.13431249999996,100.34651635678613L381.4740416666666,113.99840666045901L398.81377083333336,121.74493796872649L416.1535,124.18579672014238L433.49322916666665,133.53803622347655L450.83295833333335,144.34924614553998L468.1726875,149.21775255677636L485.51241666666664,154.1632088833664L502.85214583333334,155.99101729519913L520.191875,120.84853970851916L537.5316041666667,87.88990788772215L554.8713333333333,93.53417210550151L572.2110625,60.947863619091116L589.5507916666667,70.37866001618828" style="fill: none;" fill="none"></path></g><g><path stroke="rgb(255, 112, 67)" stroke-width="2px" d="M173.39729166666666,147.79924392700195L190.7370208333333,142.9578998006385L208.07675,192.2506864849012L225.41647916666668,200.2665408318367L242.75620833333332,-8.367029893012273L260.0959375,27.716738821401222L277.43566666666663,50.463894342238575L294.77539583333333,73.9036147404494L312.115125,80.59185858530833L329.4548541666666,96.59026224328827L346.7945833333333,108.34850864006073L364.13431249999996,117.69802191696822L381.4740416666666,123.92170413624376L398.81377083333336,129.94830565908245L416.1535,137.75210570229873" style="fill: none;" fill="none"></path></g><g><path stroke="rgb(187, 187, 187)" stroke-width="2px" d="M190.7370208333333,-128.1812609853553L208.07675,41.36278846926958L225.41647916666668,69.53128542597287L242.75620833333332,91.52132767213367L260.0959375,108.46238791944349L277.43566666666663,149.44845549731068" style="fill: none;" fill="none"></path></g><g><path style="fill: none;" fill="none" stroke="none" stroke-width="1px"></path></g><g><path stroke="rgb(238, 51, 119)" stroke-width="2px" d="M173.39729166666666,197.675874710083L190.7370208333333,224.24754734906145L208.07675,214.73557673133917L225.41647916666668,194.3486997288764L242.75620833333332,191.48605072388975L260.0959375,210.12286548934864L277.43566666666663,222.09090797894993L294.77539583333333,221.1473636900783L312.115125,218.23613644904066L329.4548541666666,227.0883921646162L346.7945833333333,225.07230219805876L364.13431249999996,201.46522503628728L381.4740416666666,202.46173307833197L398.81377083333336,214.0817794519911L416.1535,215.95518809306895L433.49322916666665,219.04392810163955L450.83295833333335,217.48875159348293L468.1726875,224.3816694651727L485.51241666666664,224.88332347264603L502.85214583333334,225.35996512298001L520.191875,226.4126436648318L537.5316041666667,232.0037950081218L554.8713333333333,232.4957359847862L572.2110625,229.6180558361262L589.5507916666667,229.63527171125816L606.8905208333333,234.78293301936637L624.23025,199.9890654320163L641.5699791666667,201.16754561815526L658.9097083333332,190.40359113736872L676.2494375,196.58243635512122L693.5891666666666,196.7593448987669L710.9288958333333,198.51106856612557L728.2686249999999,199.36980434433562L745.6083541666667,203.9749645945289L762.9480833333332,207.34096566327477L780.2878125,208.07485728348834L797.6275416666667,205.4838390861265L814.9672708333333,209.45469014387066L832.307,208.56601860186782L849.6467291666667,209.3651276438687L866.9864583333333,212.27926169419678L884.3261875,188.6337424938089L901.6659166666667,169.7918499047061L919.0056458333332,169.6148681620091L936.345375,172.40095936792102L953.6851041666666,175.5784331890289L971.0248333333333,178.9255773094847L988.3645624999999,178.64366932520818L1005.7042916666667,181.20721658304006L1023.0440208333332,183.96596723837703L1040.38375,187.14687711090292L1057.7234791666665,189.3738845382633L1075.0632083333335,192.31096345708227L1092.4029375,194.79094169538905L1109.7426666666665,177.96692229398639L1127.0823958333333,174.28111324143467L1144.422125,175.1411437594343L1161.7618541666666,178.62799481894854L1179.1015833333333,180.4708448812213L1196.4413124999999,182.03421058687763L1213.7810416666666,166.7512259548802L1231.1207708333334,169.8826514652048L1248.4605,158.07090742461818L1265.8002291666664,158.71262628229593L1283.1399583333334,161.34250265527064L1300.4796875,149.60590763606547L1317.8194166666665,152.17524193300144L1335.1591458333335,152.58373223231354L1352.498875,150.19602980469324L1369.8386041666665,152.43565993790958L1387.1783333333333,154.61696393552154L1404.5180625,157.14457283479115L1421.8577916666666,158.28970115146018L1439.1975208333333,161.35270332485933L1456.5372499999999,163.65912218517553L1473.8769791666666,165.2977493338118L1491.2167083333334,167.31422909164732L1508.5564375,168.70214820181988L1525.8961666666664,170.55346579439012L1543.2358958333334,171.826463663714L1560.575625,173.50037598052518L1577.9153541666665,175.03817005458967L1595.2550833333335,176.1974628608975" style="fill: none;" fill="none"></path></g></g></g></g><g opacity="0.2"><g><g><g><path stroke="rgb(0, 153, 136)" stroke-width="2px" d="M173.39729166666666,314.33177375793457L190.7370208333333,285.96627044677734L208.07675,216.0989875793457L225.41647916666668,314.42760467529297L242.75620833333332,294.58477783203125L260.0959375,327.5819892883301L277.43566666666663,359.57526206970215L294.77539583333333,293.7465934753418L312.115125,233.5176239013672L329.4548541666666,398.7434825897217L346.7945833333333,241.9621295928955L364.13431249999996,275.57645988464355L381.4740416666666,370.6238765716553L398.81377083333336,408.9383144378662L450.83295833333335,378.1277332305908L468.1726875,343.9191436767578L485.51241666666664,291.68824577331543L502.85214583333334,359.0496711730957L520.191875,362.1312313079834L537.5316041666667,345.4491214752197L554.8713333333333,303.93362617492676L572.2110625,347.6989517211914L589.5507916666667,353.38982009887695L606.8905208333333,149.6284580230713L624.23025,315.4097595214844L641.5699791666667,380.7357864379883L658.9097083333332,363.05735778808594L676.2494375,345.92576599121094L693.5891666666666,294.0737991333008L710.9288958333333,347.27725982666016L728.2686249999999,384.591703414917L745.6083541666667,398.8544635772705L762.9480833333332,311.92882919311523L780.2878125,334.1945915222168L797.6275416666667,496.4653797149658L814.9672708333333,392.82679748535156L832.307,337.90142822265625L849.6467291666667,366.3676929473877L866.9864583333333,434.2072868347168L884.3261875,410.2960834503174L901.6659166666667,298.00421142578125L919.0056458333332,311.813814163208L936.345375,342.61982345581055L953.6851041666666,357.24313735961914L971.0248333333333,318.5349769592285L988.3645624999999,274.6141166687012L1005.7042916666667,411.4255256652832L1023.0440208333332,407.6599712371826L1040.38375,357.5502624511719L1057.7234791666665,342.25792503356934L1075.0632083333335,260.10635566711426" style="fill: none;" fill="none"></path></g><g><path stroke="rgb(238, 51, 119)" stroke-width="2px" d="M173.39729166666666,222.5711154937744L190.7370208333333,283.21666717529297L208.07675,124.43424987792969L225.41647916666668,283.5531063079834L242.75620833333332,317.8311710357666L260.0959375,257.34751892089844L277.43566666666663,340.279541015625L294.77539583333333,267.87870025634766L312.115125,242.5279712677002L329.4548541666666,257.2779541015625L346.7945833333333,347.9976501464844L364.13431249999996,360.46454429626465L381.4740416666666,223.74520111083984L398.81377083333336,309.1487464904785L416.1535,363.1749725341797L433.49322916666665,340.0362434387207L450.83295833333335,287.25653648376465L468.1726875,330.04768562316895L485.51241666666664,281.81506156921387L502.85214583333334,354.63607025146484L520.191875,294.7692680358887L537.5316041666667,368.01654052734375L554.8713333333333,359.99023056030273L572.2110625,372.47971534729004L589.5507916666667,321.1152400970459L606.8905208333333,325.02117919921875L624.23025,388.0963897705078L641.5699791666667,306.2838592529297L658.9097083333332,345.7417240142822L676.2494375,241.8881721496582L693.5891666666666,294.2618751525879L710.9288958333333,427.53829765319824L728.2686249999999,304.85876655578613L745.6083541666667,396.43556213378906L762.9480833333332,365.34528732299805L780.2878125,422.47951889038086L814.9672708333333,384.5381851196289L832.307,321.67104148864746L849.6467291666667,321.9371089935303L866.9864583333333,433.5604953765869L884.3261875,294.8796215057373L901.6659166666667,336.51425552368164L919.0056458333332,401.8271942138672L936.345375,405.0003719329834L953.6851041666666,375.3636074066162L971.0248333333333,316.76627349853516L988.3645624999999,381.1391906738281L1005.7042916666667,366.38373947143555L1023.0440208333332,300.0875701904297" style="fill: none;" fill="none"></path></g><g><path stroke="rgb(51, 187, 238)" stroke-width="2px" d="M173.39729166666666,123.40377616882324L190.7370208333333,183.2089023590088L208.07675,279.6855354309082L225.41647916666668,285.73104095458984L242.75620833333332,190.84597206115723L260.0959375,190.76116752624512L277.43566666666663,356.375638961792L294.77539583333333,329.3372459411621L312.115125,323.8653812408447L329.4548541666666,210.1007251739502L346.7945833333333,265.18189811706543L364.13431249999996,288.38768196105957L381.4740416666666,253.21576309204102L398.81377083333336,320.4720344543457L416.1535,343.49530029296875L433.49322916666665,310.7037353515625L450.83295833333335,328.26428031921387L468.1726875,322.8547191619873L485.51241666666664,354.2227153778076L502.85214583333334,315.8781566619873L520.191875,231.25981521606445L537.5316041666667,264.92309188842773L554.8713333333333,327.5524959564209L572.2110625,299.3653869628906" style="fill: none;" fill="none"></path></g><g><path stroke="rgb(204, 51, 17)" stroke-width="2px" d="M173.39729166666666,171.95069694519043L190.7370208333333,246.7884578704834L208.07675,228.08161735534668L225.41647916666668,185.89171981811523L242.75620833333332,281.46849250793457L260.0959375,318.6959800720215L277.43566666666663,354.00900077819824L294.77539583333333,236.49501609802246L312.115125,278.27980613708496L329.4548541666666,262.4319362640381L346.7945833333333,309.9908752441406L364.13431249999996,252.6226692199707L381.4740416666666,266.36467933654785L398.81377083333336,498.95622158050537L416.1535,374.41892433166504L433.49322916666665,214.4213638305664L450.83295833333335,366.8438892364502L468.1726875,288.05106353759766L485.51241666666664,259.3672294616699L502.85214583333334,301.51651763916016L520.191875,262.16031074523926L537.5316041666667,297.1770534515381L554.8713333333333,297.95239639282227L572.2110625,362.2646236419678L589.5507916666667,330.4709014892578L606.8905208333333,167.82844352722168L624.23025,302.34179306030273L641.5699791666667,311.0504837036133L658.9097083333332,364.02086639404297L676.2494375,384.1085147857666L693.5891666666666,293.64538383483887L710.9288958333333,377.1226291656494L728.2686249999999,330.53759765625L745.6083541666667,306.6104373931885L762.9480833333332,353.49156761169434L780.2878125,283.6024112701416L797.6275416666667,316.5978298187256L814.9672708333333,345.6222267150879L832.307,314.2311019897461L849.6467291666667,315.4019603729248L866.9864583333333,373.75133514404297L884.3261875,369.4343719482422L901.6659166666667,296.5978546142578L919.0056458333332,230.92194175720215L936.345375,73.61903190612793L953.6851041666666,356.6937007904053L971.0248333333333,339.15449142456055L988.3645624999999,260.92230796813965L1005.7042916666667,365.79790687561035L1023.0440208333332,273.20202255249023L1040.38375,300.66847229003906L1057.7234791666665,343.42564582824707L1075.0632083333335,284.94996070861816" style="fill: none;" fill="none"></path></g><g><path stroke="rgb(0, 119, 187)" stroke-width="2px" d="M173.39729166666666,125.85270881652832L190.7370208333333,243.43625831604004L208.07675,271.1101474761963L225.41647916666668,325.0964813232422L242.75620833333332,246.23920059204102L260.0959375,283.29125213623047L277.43566666666663,264.9308910369873L294.77539583333333,325.92686653137207L312.115125,240.7893886566162L329.4548541666666,308.41168212890625L346.7945833333333,223.8560028076172L364.13431249999996,288.99198150634766L381.4740416666666,234.54406356811523L398.81377083333336,224.93712615966797L416.1535,31.83549690246582L433.49322916666665,232.63129997253418L450.83295833333335,225.283784866333L468.1726875,253.41531372070312L485.51241666666664,273.6514148712158L502.85214583333334,246.06457138061523L520.191875,219.3813533782959L537.5316041666667,197.11057090759277L554.8713333333333,258.2036323547363L572.2110625,278.29997634887695L589.5507916666667,211.39448738098145L606.8905208333333,257.5727081298828L624.23025,284.80374908447266L641.5699791666667,114.15057945251465L658.9097083333332,199.63390922546387L676.2494375,297.8045711517334L693.5891666666666,250.17911529541016L710.9288958333333,348.9252109527588L728.2686249999999,246.49253845214844L745.6083541666667,204.74799919128418L762.9480833333332,277.765869140625L780.2878125,327.04644775390625L797.6275416666667,231.40988159179688L814.9672708333333,112.89384078979492L832.307,302.74851417541504L849.6467291666667,288.0749092102051L866.9864583333333,279.25685119628906L884.3261875,238.11652183532715L901.6659166666667,287.7537097930908L919.0056458333332,43.65891647338867L936.345375,299.6664161682129L953.6851041666666,210.5182933807373L971.0248333333333,228.8615322113037L988.3645624999999,32.463552474975586L1005.7042916666667,213.9600486755371L1023.0440208333332,282.4509162902832L1040.38375,270.52996253967285L1057.7234791666665,245.0063076019287L1075.0632083333335,195.1246566772461L1092.4029375,206.8196144104004L1109.7426666666665,171.70363426208496L1127.0823958333333,272.39942741394043L1144.422125,301.2506294250488L1161.7618541666666,233.2628517150879L1179.1015833333333,234.26410102844238L1196.4413124999999,292.29281425476074L1213.7810416666666,256.08871841430664L1231.1207708333334,290.86207389831543L1248.4605,311.4251117706299L1265.8002291666664,328.3127784729004L1283.1399583333334,259.6317729949951L1300.4796875,170.6814079284668L1317.8194166666665,288.8494453430176L1335.1591458333335,295.5687255859375L1352.498875,327.4604301452637L1369.8386041666665,253.0529670715332" style="fill: none;" fill="none"></path></g><g><path stroke="rgb(255, 112, 67)" stroke-width="2px" d="M173.39729166666666,-202.57902908325195L190.7370208333333,39.75288772583008L208.07675,40.9046516418457L225.41647916666668,-173.81424522399902L242.75620833333332,-68.6697998046875L260.0959375,15.790407180786133L277.43566666666663,-184.81758880615234L398.81377083333336,-106.71010208129883L416.1535,58.97976112365723L433.49322916666665,70.02855491638184L450.83295833333335,-65.34081840515137L468.1726875,-1.991292953491211L485.51241666666664,66.4288444519043L502.85214583333334,29.517356872558594L520.191875,-21.378541946411133L537.5316041666667,26.822168350219727" style="fill: none;" fill="none"></path></g><g><path stroke="rgb(187, 187, 187)" stroke-width="2px" d="M173.39729166666666,-144.4177303314209L190.7370208333333,44.89163017272949L208.07675,18.634855270385742L225.41647916666668,177.88055992126465L242.75620833333332,151.28878021240234L260.0959375,-56.58336067199707L277.43566666666663,19.75676727294922L294.77539583333333,125.94710540771484L312.115125,-11.916740417480469L329.4548541666666,265.9043502807617L346.7945833333333,191.8478488922119L364.13431249999996,38.62837600708008L381.4740416666666,114.15264129638672L398.81377083333336,47.48650550842285L416.1535,-197.74526023864746L433.49322916666665,86.36068916320801L450.83295833333335,225.18598175048828L468.1726875,59.055152893066406L485.51241666666664,-73.86026763916016L502.85214583333334,45.220449447631836L520.191875,-163.02649879455566L537.5316041666667,38.318023681640625L554.8713333333333,-14.078180313110352L572.2110625,121.34148406982422L589.5507916666667,141.2363052368164L606.8905208333333,57.35834503173828L624.23025,20.88262367248535L641.5699791666667,28.08365821838379L658.9097083333332,60.08795738220215L676.2494375,149.3441925048828L693.5891666666666,43.82592582702637L710.9288958333333,168.05596351623535L728.2686249999999,71.14679145812988L745.6083541666667,-127.2051887512207L762.9480833333332,158.38779830932617L780.2878125,62.021249771118164L797.6275416666667,154.2410717010498L814.9672708333333,-0.5135784149169922L832.307,37.29337692260742L849.6467291666667,90.1611156463623L866.9864583333333,43.85048866271973L884.3261875,119.17654800415039L901.6659166666667,154.078275680542L919.0056458333332,53.071502685546875L936.345375,75.56980514526367L953.6851041666666,54.74043083190918L971.0248333333333,-179.8626194000244L988.3645624999999,49.772104263305664L1005.7042916666667,37.75800895690918L1023.0440208333332,36.964826583862305" style="fill: none;" fill="none"></path></g><g><path stroke="rgb(0, 153, 136)" stroke-width="2px" d="M173.39729166666666,180.75934219360352L190.7370208333333,176.51786041259766L208.07675,217.87575912475586L225.41647916666668,174.5334701538086L242.75620833333332,123.4198226928711L260.0959375,24.27740478515625L277.43566666666663,256.4291019439697L294.77539583333333,171.80394744873047L312.115125,113.0731315612793L329.4548541666666,160.9307689666748L346.7945833333333,200.38262748718262L364.13431249999996,176.91221046447754L381.4740416666666,222.45905876159668L398.81377083333336,212.75001525878906L416.1535,214.77743530273438L433.49322916666665,198.0929946899414L450.83295833333335,237.9088134765625L468.1726875,134.12635040283203L485.51241666666664,244.45391273498535L502.85214583333334,128.86542129516602L520.191875,244.07462310791016L537.5316041666667,257.2905044555664L554.8713333333333,263.73851776123047L572.2110625,216.54963493347168" style="fill: none;" fill="none"></path></g><g><path stroke="rgb(238, 51, 119)" stroke-width="2px" d="M173.39729166666666,78.30703735351562L190.7370208333333,167.86322593688965L208.07675,155.92640495300293L225.41647916666668,241.1027889251709L242.75620833333332,203.85799980163574L260.0959375,102.9289493560791L277.43566666666663,254.67698287963867L294.77539583333333,155.89350509643555L312.115125,251.39076232910156L329.4548541666666,252.03396797180176L346.7945833333333,173.4638214111328L364.13431249999996,277.7469539642334L381.4740416666666,233.2694854736328L398.81377083333336,183.21661186218262L416.1535,206.2979679107666L433.49322916666665,195.09453582763672L450.83295833333335,165.04997444152832L468.1726875,174.63880348205566L485.51241666666664,197.74606704711914L502.85214583333334,272.2198677062988L520.191875,236.02536392211914L537.5316041666667,268.86363410949707L554.8713333333333,236.1107063293457L572.2110625,277.9721431732178L589.5507916666667,297.7705955505371L606.8905208333333,121.56272888183594L624.23025,159.9785556793213L641.5699791666667,244.9939365386963L658.9097083333332,260.17394828796387L676.2494375,261.56721687316895L693.5891666666666,203.69627952575684L710.9288958333333,268.04445457458496L728.2686249999999,266.05253410339355L745.6083541666667,299.8848819732666L762.9480833333332,202.81766510009766L780.2878125,237.0905303955078L797.6275416666667,255.24847221374512L814.9672708333333,260.92293548583984L832.307,270.138032913208L849.6467291666667,289.76606941223145L866.9864583333333,276.67613983154297L884.3261875,288.83877754211426L901.6659166666667,185.6959342956543L919.0056458333332,293.59921646118164L936.345375,312.467866897583L953.6851041666666,194.77208137512207L971.0248333333333,260.2422580718994L988.3645624999999,305.3655319213867L1005.7042916666667,289.47301864624023L1023.0440208333332,272.6970500946045L1040.38375,197.3596954345703L1057.7234791666665,297.3967742919922" style="fill: none;" fill="none"></path></g><g><path stroke="rgb(51, 187, 238)" stroke-width="2px" d="M173.39729166666666,202.45818710327148L190.7370208333333,151.79240798950195L208.07675,109.7327651977539L225.41647916666668,226.5965518951416L242.75620833333332,240.5169563293457L260.0959375,172.53133010864258L277.43566666666663,189.41962432861328L294.77539583333333,303.3200035095215L312.115125,284.75677490234375L329.4548541666666,189.3276481628418L346.7945833333333,286.044620513916L364.13431249999996,163.41260147094727L381.4740416666666,227.3081569671631L398.81377083333336,258.3937702178955L416.1535,244.99008178710938L433.49322916666665,218.1935520172119L450.83295833333335,260.68752670288086L468.1726875,224.25564193725586L485.51241666666664,293.3194332122803L502.85214583333334,254.19953155517578L520.191875,322.8438720703125L537.5316041666667,314.01147079467773L554.8713333333333,250.9312400817871L572.2110625,234.182523727417L589.5507916666667,368.8644962310791L606.8905208333333,236.17516136169434L624.23025,324.7289352416992L641.5699791666667,76.06904029846191L658.9097083333332,294.6625003814697L676.2494375,214.4942455291748L693.5891666666666,313.7073040008545L710.9288958333333,252.1224479675293L728.2686249999999,304.59063720703125L745.6083541666667,421.67226219177246L762.9480833333332,177.37971115112305L780.2878125,308.50132751464844L797.6275416666667,281.71582412719727L814.9672708333333,368.524112701416L832.307,345.3404712677002L849.6467291666667,368.0984764099121L866.9864583333333,298.76539039611816L884.3261875,215.72014617919922L901.6659166666667,251.14746475219727L919.0056458333332,239.74654388427734L936.345375,257.6861991882324L953.6851041666666,214.22342681884766L971.0248333333333,279.48670196533203L988.3645624999999,260.0957775115967L1005.7042916666667,297.13976097106934L1023.0440208333332,195.48072814941406L1040.38375,191.49948692321777L1057.7234791666665,239.27393341064453L1075.0632083333335,277.8476257324219L1092.4029375,170.49566268920898L1109.7426666666665,260.02495765686035L1127.0823958333333,306.5432929992676L1144.422125,105.21625137329102L1161.7618541666666,222.88738441467285L1179.1015833333333,197.90733909606934L1196.4413124999999,238.71320152282715L1213.7810416666666,301.10110092163086L1231.1207708333334,302.58984184265137L1248.4605,183.43471908569336L1265.8002291666664,302.0187110900879L1283.1399583333334,169.11870956420898L1300.4796875,172.88211250305176L1317.8194166666665,166.94570541381836L1335.1591458333335,260.5157661437988L1352.498875,221.23629570007324L1369.8386041666665,218.9389533996582L1387.1783333333333,278.46080017089844L1404.5180625,321.0412826538086L1421.8577916666666,314.788516998291L1439.1975208333333,177.39333724975586L1456.5372499999999,226.29157829284668L1473.8769791666666,174.5421657562256L1491.2167083333334,246.16658782958984L1508.5564375,110.9807186126709L1525.8961666666664,281.5912170410156L1543.2358958333334,213.8918285369873L1560.575625,268.7391166687012L1577.9153541666665,202.2106761932373L1595.2550833333335,167.0650234222412L1612.5948125,319.450345993042L1629.9345416666665,225.4076747894287L1647.2742708333333,273.5546875L1664.614,142.86193466186523L1681.9537291666666,224.09239768981934L1699.2934583333333,269.79065704345703L1716.6331874999998,203.13276863098145L1733.9729166666666,263.8501262664795L1751.3126458333334,234.9479160308838L1768.652375,268.1578559875488L1785.9921041666664,258.8336601257324L1803.3318333333334,260.73019790649414L1820.6715625,340.72588539123535L1838.0112916666665,312.250207901001L1855.3510208333335,148.25347709655762L1872.69075,305.96122550964355L1890.0304791666665,319.33192443847656" style="fill: none;" fill="none"></path></g><g><path stroke="rgb(204, 51, 17)" stroke-width="2px" d="M173.39729166666666,107.8028793334961L190.7370208333333,186.235689163208L208.07675,-194.7109432220459L225.41647916666668,343.5931930541992L242.75620833333332,211.99833869934082L260.0959375,109.69852066040039L277.43566666666663,215.11297798156738L294.77539583333333,358.30220794677734L312.115125,237.87528610229492L329.4548541666666,373.6353340148926L346.7945833333333,263.92309761047363L364.13431249999996,232.90722846984863L381.4740416666666,278.2518367767334L398.81377083333336,252.78304481506348L416.1535,232.2684154510498L433.49322916666665,297.62321853637695L450.83295833333335,271.70781326293945L468.1726875,318.2421054840088L485.51241666666664,193.70046043395996L502.85214583333334,363.805269241333L520.191875,306.71577072143555L537.5316041666667,201.97195053100586L554.8713333333333,313.07826232910156L572.2110625,334.32152938842773L589.5507916666667,75.66742897033691L606.8905208333333,284.69581604003906L624.23025,215.31225967407227L641.5699791666667,354.1627426147461L658.9097083333332,228.9728717803955L676.2494375,289.6418209075928L693.5891666666666,230.44619369506836L710.9288958333333,254.70504188537598L728.2686249999999,276.30321502685547L745.6083541666667,303.2418327331543L762.9480833333332,182.1704502105713L780.2878125,307.1869468688965L797.6275416666667,322.5613098144531L814.9672708333333,280.56280517578125L832.307,291.5118236541748L849.6467291666667,369.0818862915039L866.9864583333333,409.0564670562744L884.3261875,304.61421394348145L901.6659166666667,282.0662479400635L919.0056458333332,258.4001350402832L936.345375,233.4067325592041L953.6851041666666,212.90151596069336L971.0248333333333,280.1156539916992L988.3645624999999,450.1253490447998L1005.7042916666667,289.29265213012695L1023.0440208333332,276.12213134765625L1040.38375,209.3382911682129L1057.7234791666665,352.12886810302734" style="fill: none;" fill="none"></path></g><g><path stroke="rgb(0, 119, 187)" stroke-width="2px" d="M173.39729166666666,233.75554275512695L190.7370208333333,232.670654296875L208.07675,255.58921432495117L225.41647916666668,327.67333793640137L242.75620833333332,-756.0191612243652L260.0959375,201.5037326812744L277.43566666666663,-511.9475860595703L294.77539583333333,276.2628746032715L312.115125,276.2427043914795L329.4548541666666,230.32696533203125L346.7945833333333,241.71067428588867L364.13431249999996,195.57503509521484L381.4740416666666,276.7601375579834L398.81377083333336,221.74772262573242L416.1535,158.10263633728027L433.49322916666665,272.70458030700684L450.83295833333335,315.8656063079834L468.1726875,231.2414379119873L485.51241666666664,242.34052276611328L502.85214583333334,190.3741683959961L520.191875,-574.6676216125488L537.5316041666667,-596.6784324645996L554.8713333333333,216.28993225097656L572.2110625,-679.6090202331543L589.5507916666667,293.91010665893555" style="fill: none;" fill="none"></path></g><g><path stroke="rgb(255, 112, 67)" stroke-width="2px" d="M173.39729166666666,147.79924392700195L190.7370208333333,138.12139701843262L208.07675,290.6884307861328L225.41647916666668,224.26604080200195L242.75620833333332,-840.8170623779297L260.0959375,207.5950469970703L277.43566666666663,186.46993255615234L294.77539583333333,237.32665634155273L312.115125,133.85759353637695L329.4548541666666,239.85788345336914L346.7945833333333,225.28620529174805L364.13431249999996,219.9276523590088L381.4740416666666,198.12221908569336L398.81377083333336,207.74789237976074L416.1535,246.1894474029541" style="fill: none;" fill="none"></path></g><g><path stroke="rgb(187, 187, 187)" stroke-width="2px" d="M173.39729166666666,-375.844913482666L190.7370208333333,119.23472785949707L208.07675,379.9424247741699L225.41647916666668,153.86787796020508L242.75620833333332,179.26181602478027L260.0959375,192.913911819458L277.43566666666663,394.5055866241455" style="fill: none;" fill="none"></path></g><g><path stroke="rgb(0, 153, 136)" stroke-width="2px" d="M190.7370208333333,-356.14372634887695L208.07675,218.72057723999023" style="fill: none;" fill="none"></path></g><g><path stroke="rgb(238, 51, 119)" stroke-width="2px" d="M173.39729166666666,197.675874710083L190.7370208333333,250.7926483154297L208.07675,195.74016189575195L225.41647916666668,133.3103084564209L242.75620833333332,180.0640525817871L260.0959375,303.02775955200195L277.43566666666663,293.6482524871826L294.77539583333333,214.56892013549805L312.115125,195.05087852478027L329.4548541666666,306.3614025115967L346.7945833333333,205.0219554901123L364.13431249999996,-56.659738540649414L381.4740416666666,214.34238624572754L398.81377083333336,364.0891761779785L416.1535,241.98705101013184L433.49322916666665,265.006103515625L450.83295833333335,192.8163776397705L468.1726875,340.5122604370117L485.51241666666664,233.82779693603516L502.85214583333334,234.32613563537598L520.191875,247.24654579162598L537.5316041666667,348.1349868774414L554.8713333333333,243.19484329223633L572.2110625,164.21985816955566L589.5507916666667,230.04332733154297L606.8905208333333,361.8147830963135L624.23025,-692.5400085449219L641.5699791666667,232.5448818206787L658.9097083333332,-106.65604591369629L676.2494375,373.1060676574707L693.5891666666666,201.98512840270996L710.9288958333333,251.95427322387695L728.2686249999999,226.40058708190918L745.6083541666667,353.389102935791L762.9480833333332,319.80408668518066L780.2878125,233.3039093017578L797.6275416666667,113.91283988952637L814.9672708333333,353.6178779602051L832.307,175.44695663452148L849.6467291666667,239.91489791870117L866.9864583333333,326.4858055114746L884.3261875,-760.7425765991211L901.6659166666667,-604.7836303710938L919.0056458333332,162.16975784301758L936.345375,292.26986503601074L953.6851041666666,315.3237895965576L971.0248333333333,329.329626083374L988.3645624999999,165.7071647644043L1005.7042916666667,301.2894458770752L1023.0440208333332,315.81872177124023L1040.38375,342.2021656036377L1057.7234791666665,300.04687118530273L1075.0632083333335,341.05972480773926L1092.4029375,322.7416763305664L1109.7426666666665,-705.9821548461914L1127.0823958333333,-22.863069534301758L1144.422125,221.9550724029541L1161.7618541666666,371.7208671569824L1179.1015833333333,284.26211166381836L1196.4413124999999,271.5583744049072L1213.7810416666666,-722.8021392822266L1231.1207708333334,355.0947856903076L1248.4605,-551.6509895324707L1265.8002291666664,197.87354278564453L1283.1399583333334,324.2975616455078L1300.4796875,-588.6264839172363L1317.8194166666665,316.19164657592773L1335.1591458333335,179.0421848297119L1352.498875,-6.689249038696289L1369.8386041666665,301.68200302124023L1387.1783333333333,302.0102844238281L1404.5180625,330.2924175262451L1421.8577916666666,237.79953575134277L1439.1975208333333,376.8737735748291L1456.5372499999999,328.08678245544434L1473.8769791666666,283.63782119750977L1491.2167083333334,314.81128692626953L1508.5564375,271.50763511657715L1525.8961666666664,309.39598846435547L1543.2358958333334,268.47322845458984L1560.575625,302.12996101379395L1577.9153541666665,294.62601470947266L1595.2550833333335,267.41881942749023" style="fill: none;" fill="none"></path></g></g></g></g></g></g><g transform="translate(51, 376)" clip-path="url(#clip_1)"><clipPath id="clip_1"><rect width="2080" height="24"></rect></clipPath><g><g><line x1="0" y1="0" x2="0" y2="5" style="visibility: inherit;" fill="rgb(0, 0, 0)" stroke="rgb(204, 204, 204)" stroke-width="1px"></line><line x1="173.39729166666666" y1="0" x2="173.39729166666666" y2="5" style="visibility: inherit;" fill="rgb(0, 0, 0)" stroke="rgb(204, 204, 204)" stroke-width="1px"></line><line x1="346.7945833333333" y1="0" x2="346.7945833333333" y2="5" style="visibility: inherit;" fill="rgb(0, 0, 0)" stroke="rgb(204, 204, 204)" stroke-width="1px"></line><line x1="520.191875" y1="0" x2="520.191875" y2="5" style="visibility: inherit;" fill="rgb(0, 0, 0)" stroke="rgb(204, 204, 204)" stroke-width="1px"></line><line x1="693.5891666666666" y1="0" x2="693.5891666666666" y2="5" style="visibility: inherit;" fill="rgb(0, 0, 0)" stroke="rgb(204, 204, 204)" stroke-width="1px"></line><line x1="866.9864583333333" y1="0" x2="866.9864583333333" y2="5" style="visibility: inherit;" fill="rgb(0, 0, 0)" stroke="rgb(204, 204, 204)" stroke-width="1px"></line><line x1="1040.38375" y1="0" x2="1040.38375" y2="5" style="visibility: inherit;" fill="rgb(0, 0, 0)" stroke="rgb(204, 204, 204)" stroke-width="1px"></line><line x1="1213.7810416666666" y1="0" x2="1213.7810416666666" y2="5" style="visibility: inherit;" fill="rgb(0, 0, 0)" stroke="rgb(204, 204, 204)" stroke-width="1px"></line><line x1="1387.1783333333333" y1="0" x2="1387.1783333333333" y2="5" style="visibility: inherit;" fill="rgb(0, 0, 0)" stroke="rgb(204, 204, 204)" stroke-width="1px"></line><line x1="1560.575625" y1="0" x2="1560.575625" y2="5" style="visibility: inherit;" fill="rgb(0, 0, 0)" stroke="rgb(204, 204, 204)" stroke-width="1px"></line><line x1="1733.9729166666666" y1="0" x2="1733.9729166666666" y2="5" style="visibility: inherit;" fill="rgb(0, 0, 0)" stroke="rgb(204, 204, 204)" stroke-width="1px"></line><line x1="1907.3702083333333" y1="0" x2="1907.3702083333333" y2="5" style="visibility: inherit;" fill="rgb(0, 0, 0)" stroke="rgb(204, 204, 204)" stroke-width="1px"></line><line x1="2080.7675" y1="0" x2="2080.7675" y2="5" style="visibility: inherit;" fill="rgb(0, 0, 0)" stroke="rgb(204, 204, 204)" stroke-width="1px"></line></g><g transform="translate(0, 8)"><text x="0" y="0" dx="0em" dy="0.95em" style="text-anchor: middle; visibility: hidden; font-family: Roboto, sans-serif; font-size: 12px; font-weight: 200;" fill="rgb(50, 49, 63)" stroke="none" stroke-width="1px">-10</text><text x="173.39729166666666" y="0" dx="0em" dy="0.95em" style="text-anchor: middle; visibility: inherit; font-family: Roboto, sans-serif; font-size: 12px; font-weight: 200;" fill="rgb(50, 49, 63)" stroke="none" stroke-width="1px">0</text><text x="346.7945833333333" y="0" dx="0em" dy="0.95em" style="text-anchor: middle; visibility: inherit; font-family: Roboto, sans-serif; font-size: 12px; font-weight: 200;" fill="rgb(50, 49, 63)" stroke="none" stroke-width="1px">10</text><text x="520.191875" y="0" dx="0em" dy="0.95em" style="text-anchor: middle; visibility: inherit; font-family: Roboto, sans-serif; font-size: 12px; font-weight: 200;" fill="rgb(50, 49, 63)" stroke="none" stroke-width="1px">20</text><text x="693.5891666666666" y="0" dx="0em" dy="0.95em" style="text-anchor: middle; visibility: inherit; font-family: Roboto, sans-serif; font-size: 12px; font-weight: 200;" fill="rgb(50, 49, 63)" stroke="none" stroke-width="1px">30</text><text x="866.9864583333333" y="0" dx="0em" dy="0.95em" style="text-anchor: middle; visibility: inherit; font-family: Roboto, sans-serif; font-size: 12px; font-weight: 200;" fill="rgb(50, 49, 63)" stroke="none" stroke-width="1px">40</text><text x="1040.38375" y="0" dx="0em" dy="0.95em" style="text-anchor: middle; visibility: inherit; font-family: Roboto, sans-serif; font-size: 12px; font-weight: 200;" fill="rgb(50, 49, 63)" stroke="none" stroke-width="1px">50</text><text x="1213.7810416666666" y="0" dx="0em" dy="0.95em" style="text-anchor: middle; visibility: inherit; font-family: Roboto, sans-serif; font-size: 12px; font-weight: 200;" fill="rgb(50, 49, 63)" stroke="none" stroke-width="1px">60</text><text x="1387.1783333333333" y="0" dx="0em" dy="0.95em" style="text-anchor: middle; visibility: inherit; font-family: Roboto, sans-serif; font-size: 12px; font-weight: 200;" fill="rgb(50, 49, 63)" stroke="none" stroke-width="1px">70</text><text x="1560.575625" y="0" dx="0em" dy="0.95em" style="text-anchor: middle; visibility: inherit; font-family: Roboto, sans-serif; font-size: 12px; font-weight: 200;" fill="rgb(50, 49, 63)" stroke="none" stroke-width="1px">80</text><text x="1733.9729166666666" y="0" dx="0em" dy="0.95em" style="text-anchor: middle; visibility: inherit; font-family: Roboto, sans-serif; font-size: 12px; font-weight: 200;" fill="rgb(50, 49, 63)" stroke="none" stroke-width="1px">90</text><text x="1907.3702083333333" y="0" dx="0em" dy="0.95em" style="text-anchor: middle; visibility: inherit; font-family: Roboto, sans-serif; font-size: 12px; font-weight: 200;" fill="rgb(50, 49, 63)" stroke="none" stroke-width="1px">100</text><text x="2080.7675" y="0" dx="0em" dy="0.95em" style="text-anchor: middle; visibility: hidden; font-family: Roboto, sans-serif; font-size: 12px; font-weight: 200;" fill="rgb(50, 49, 63)" stroke="none" stroke-width="1px">110</text></g><line x1="0" y1="0" x2="2080.7675" y2="0" fill="rgb(0, 0, 0)" stroke="rgb(204, 204, 204)" stroke-width="1px"></line></g></g></g></g></svg>