<svg aria-roledescription="flowchart-v2" role="graphics-document document" viewBox="0 0 997.328125 534.0665283203125" style="max-width: 997.328px; background-color: white;" class="flowchart" xmlns:xlink="http://www.w3.org/1999/xlink" xmlns="http://www.w3.org/2000/svg" width="100%" id="my-svg"><style>#my-svg{font-family:"trebuchet ms",verdana,arial,sans-serif;font-size:16px;fill:#333;}@keyframes edge-animation-frame{from{stroke-dashoffset:0;}}@keyframes dash{to{stroke-dashoffset:0;}}#my-svg .edge-animation-slow{stroke-dasharray:9,5!important;stroke-dashoffset:900;animation:dash 50s linear infinite;stroke-linecap:round;}#my-svg .edge-animation-fast{stroke-dasharray:9,5!important;stroke-dashoffset:900;animation:dash 20s linear infinite;stroke-linecap:round;}#my-svg .error-icon{fill:#552222;}#my-svg .error-text{fill:#552222;stroke:#552222;}#my-svg .edge-thickness-normal{stroke-width:1px;}#my-svg .edge-thickness-thick{stroke-width:3.5px;}#my-svg .edge-pattern-solid{stroke-dasharray:0;}#my-svg .edge-thickness-invisible{stroke-width:0;fill:none;}#my-svg .edge-pattern-dashed{stroke-dasharray:3;}#my-svg .edge-pattern-dotted{stroke-dasharray:2;}#my-svg .marker{fill:#333333;stroke:#333333;}#my-svg .marker.cross{stroke:#333333;}#my-svg svg{font-family:"trebuchet ms",verdana,arial,sans-serif;font-size:16px;}#my-svg p{margin:0;}#my-svg .label{font-family:"trebuchet ms",verdana,arial,sans-serif;color:#333;}#my-svg .cluster-label text{fill:#333;}#my-svg .cluster-label span{color:#333;}#my-svg .cluster-label span p{background-color:transparent;}#my-svg .label text,#my-svg span{fill:#333;color:#333;}#my-svg .node rect,#my-svg .node circle,#my-svg .node ellipse,#my-svg .node polygon,#my-svg .node path{fill:#ECECFF;stroke:#9370DB;stroke-width:1px;}#my-svg .rough-node .label text,#my-svg .node .label text,#my-svg .image-shape .label,#my-svg .icon-shape .label{text-anchor:middle;}#my-svg .node .katex path{fill:#000;stroke:#000;stroke-width:1px;}#my-svg .rough-node .label,#my-svg .node .label,#my-svg .image-shape .label,#my-svg .icon-shape .label{text-align:center;}#my-svg .node.clickable{cursor:pointer;}#my-svg .root .anchor path{fill:#333333!important;stroke-width:0;stroke:#333333;}#my-svg .arrowheadPath{fill:#333333;}#my-svg .edgePath .path{stroke:#333333;stroke-width:2.0px;}#my-svg .flowchart-link{stroke:#333333;fill:none;}#my-svg .edgeLabel{background-color:rgba(232,232,232, 0.8);text-align:center;}#my-svg .edgeLabel p{background-color:rgba(232,232,232, 0.8);}#my-svg .edgeLabel rect{opacity:0.5;background-color:rgba(232,232,232, 0.8);fill:rgba(232,232,232, 0.8);}#my-svg .labelBkg{background-color:rgba(232, 232, 232, 0.5);}#my-svg .cluster rect{fill:#ffffde;stroke:#aaaa33;stroke-width:1px;}#my-svg .cluster text{fill:#333;}#my-svg .cluster span{color:#333;}#my-svg div.mermaidTooltip{position:absolute;text-align:center;max-width:200px;padding:2px;font-family:"trebuchet ms",verdana,arial,sans-serif;font-size:12px;background:hsl(80, 100%, 96.2745098039%);border:1px solid #aaaa33;border-radius:2px;pointer-events:none;z-index:100;}#my-svg .flowchartTitleText{text-anchor:middle;font-size:18px;fill:#333;}#my-svg rect.text{fill:none;stroke-width:0;}#my-svg .icon-shape,#my-svg .image-shape{background-color:rgba(232,232,232, 0.8);text-align:center;}#my-svg .icon-shape p,#my-svg .image-shape p{background-color:rgba(232,232,232, 0.8);padding:2px;}#my-svg .icon-shape rect,#my-svg .image-shape rect{opacity:0.5;background-color:rgba(232,232,232, 0.8);fill:rgba(232,232,232, 0.8);}#my-svg :root{--mermaid-font-family:"trebuchet ms",verdana,arial,sans-serif;}</style><g><marker orient="auto" markerHeight="8" markerWidth="8" markerUnits="userSpaceOnUse" refY="5" refX="5" viewBox="0 0 10 10" class="marker flowchart-v2" id="my-svg_flowchart-v2-pointEnd"><path style="stroke-width: 1; stroke-dasharray: 1, 0;" class="arrowMarkerPath" d="M 0 0 L 10 5 L 0 10 z"/></marker><marker orient="auto" markerHeight="8" markerWidth="8" markerUnits="userSpaceOnUse" refY="5" refX="4.5" viewBox="0 0 10 10" class="marker flowchart-v2" id="my-svg_flowchart-v2-pointStart"><path style="stroke-width: 1; stroke-dasharray: 1, 0;" class="arrowMarkerPath" d="M 0 5 L 10 10 L 10 0 z"/></marker><marker orient="auto" markerHeight="11" markerWidth="11" markerUnits="userSpaceOnUse" refY="5" refX="11" viewBox="0 0 10 10" class="marker flowchart-v2" id="my-svg_flowchart-v2-circleEnd"><circle style="stroke-width: 1; stroke-dasharray: 1, 0;" class="arrowMarkerPath" r="5" cy="5" cx="5"/></marker><marker orient="auto" markerHeight="11" markerWidth="11" markerUnits="userSpaceOnUse" refY="5" refX="-1" viewBox="0 0 10 10" class="marker flowchart-v2" id="my-svg_flowchart-v2-circleStart"><circle style="stroke-width: 1; stroke-dasharray: 1, 0;" class="arrowMarkerPath" r="5" cy="5" cx="5"/></marker><marker orient="auto" markerHeight="11" markerWidth="11" markerUnits="userSpaceOnUse" refY="5.2" refX="12" viewBox="0 0 11 11" class="marker cross flowchart-v2" id="my-svg_flowchart-v2-crossEnd"><path style="stroke-width: 2; stroke-dasharray: 1, 0;" class="arrowMarkerPath" d="M 1,1 l 9,9 M 10,1 l -9,9"/></marker><marker orient="auto" markerHeight="11" markerWidth="11" markerUnits="userSpaceOnUse" refY="5.2" refX="-1" viewBox="0 0 11 11" class="marker cross flowchart-v2" id="my-svg_flowchart-v2-crossStart"><path style="stroke-width: 2; stroke-dasharray: 1, 0;" class="arrowMarkerPath" d="M 1,1 l 9,9 M 10,1 l -9,9"/></marker><g class="root"><g class="clusters"><g data-look="classic" id="MCP" class="cluster"><rect height="337.06649017333984" width="754.125" y="8" x="235.203125" style=""/><g transform="translate(597.34375, 8)" class="cluster-label"><foreignObject height="24" width="29.84375"><div style="display: table-cell; white-space: nowrap; line-height: 1.5; max-width: 200px; text-align: center;" xmlns="http://www.w3.org/1999/xhtml"><span class="nodeLabel"><p>MCP</p></span></div></foreignObject></g></g><g data-look="classic" id="RAG" class="cluster"><rect height="161" width="614.140625" y="365.06649017333984" x="8" style=""/><g transform="translate(300.28125, 365.06649017333984)" class="cluster-label"><foreignObject height="24" width="29.578125"><div style="display: table-cell; white-space: nowrap; line-height: 1.5; max-width: 200px; text-align: center;" xmlns="http://www.w3.org/1999/xhtml"><span class="nodeLabel"><p>RAG</p></span></div></foreignObject></g></g></g><g class="edgePaths"><path marker-end="url(#my-svg_flowchart-v2-pointEnd)" style="" class="edge-thickness-normal edge-pattern-solid edge-thickness-normal edge-pattern-solid flowchart-link" id="L_fe_be_0" d="M185.203,441.325L189.37,441.448C193.536,441.572,201.87,441.819,210.203,441.943C218.536,442.066,226.87,442.066,235.962,442.758C245.054,443.449,254.906,444.832,259.831,445.524L264.757,446.215"/><path marker-end="url(#my-svg_flowchart-v2-pointEnd)" style="" class="edge-thickness-normal edge-pattern-solid edge-thickness-normal edge-pattern-solid flowchart-link" id="L_be_llm_0" d="M354.869,437.039L361.099,434.544C367.329,432.048,379.79,427.057,389.541,425.481C399.293,423.905,406.336,425.743,409.858,426.662L413.38,427.581"/><path marker-end="url(#my-svg_flowchart-v2-pointEnd)" style="" class="edge-thickness-normal edge-pattern-solid edge-thickness-normal edge-pattern-solid flowchart-link" id="L_llm_be_0" d="M417.25,473.194L413.083,474.173C408.917,475.152,400.583,477.109,390.929,476.25C381.275,475.391,370.3,471.715,364.812,469.877L359.324,468.039"/><path marker-end="url(#my-svg_flowchart-v2-pointEnd)" style="" class="edge-thickness-normal edge-pattern-solid edge-thickness-normal edge-pattern-solid flowchart-link" id="L_be_fe_0" d="M272.922,466.769L266.635,468.819C260.349,470.868,247.776,474.967,237.323,477.017C226.87,479.066,218.536,479.066,210.823,477.663C203.11,476.26,196.016,473.454,192.469,472.05L188.923,470.647"/><path marker-end="url(#my-svg_flowchart-v2-pointEnd)" style="" class="edge-thickness-normal edge-pattern-solid edge-thickness-normal edge-pattern-solid flowchart-link" id="L_agent_client_0" d="M483.684,199.066L468.445,216.566C453.206,234.066,422.728,269.066,397.419,269.639C372.111,270.212,351.972,236.358,341.903,219.431L331.833,202.504"/><path marker-end="url(#my-svg_flowchart-v2-pointEnd)" style="" class="edge-thickness-normal edge-pattern-solid edge-thickness-normal edge-pattern-solid flowchart-link" id="L_client_fe_0" d="M305.246,199.066L293.572,236.233C281.898,273.4,258.551,347.733,242.71,384.9C226.87,422.066,218.536,422.066,210.861,422.657C203.185,423.247,196.166,424.427,192.657,425.017L189.148,425.607"/><path marker-end="url(#my-svg_flowchart-v2-pointEnd)" style="" class="edge-thickness-normal edge-pattern-solid edge-thickness-normal edge-pattern-solid flowchart-link" id="L_fe_client_0" d="M185.203,411.216L189.37,409.691C193.536,408.166,201.87,405.116,210.203,403.591C218.536,402.066,226.87,402.066,242.372,368.864C257.874,335.662,280.545,269.257,291.881,236.054L303.216,202.852"/><path marker-end="url(#my-svg_flowchart-v2-pointEnd)" style="" class="edge-thickness-normal edge-pattern-solid edge-thickness-normal edge-pattern-solid flowchart-link" id="L_client_agent_0" d="M331.316,145.066L341.472,129.478C351.627,113.889,371.939,82.711,396.5,82.229C421.062,81.746,449.874,111.959,464.28,127.065L478.687,142.172"/><path marker-end="url(#my-svg_flowchart-v2-pointEnd)" style="" class="edge-thickness-normal edge-pattern-solid edge-thickness-normal edge-pattern-solid flowchart-link" id="L_agent_ServerA_0" d="M532.944,145.066L547.81,129.478C562.676,113.889,592.408,82.711,611.441,67.122C630.474,51.533,638.807,51.533,646.582,52.508C654.356,53.483,661.571,55.433,665.179,56.407L668.787,57.382"/><path marker-end="url(#my-svg_flowchart-v2-pointEnd)" style="" class="edge-thickness-normal edge-pattern-solid edge-thickness-normal edge-pattern-solid flowchart-link" id="L_ServerA_resourceA_0" d="M795.82,58.426L800.072,57.277C804.323,56.128,812.826,53.831,825.185,54.954C837.544,56.076,853.76,60.619,861.868,62.891L869.976,65.162"/><path marker-end="url(#my-svg_flowchart-v2-pointEnd)" style="" class="edge-thickness-normal edge-pattern-solid edge-thickness-normal edge-pattern-solid flowchart-link" id="L_resourceA_ServerA_0" d="M873.828,90.816L865.078,95.191C856.328,99.566,838.828,108.316,825.494,110.481C812.161,112.646,802.993,108.225,798.41,106.014L793.826,103.804"/><path marker-end="url(#my-svg_flowchart-v2-pointEnd)" style="" class="edge-thickness-normal edge-pattern-solid edge-thickness-normal edge-pattern-solid flowchart-link" id="L_ServerA_agent_0" d="M678.246,102.066L673.061,104.566C667.877,107.066,657.509,112.066,648.158,114.566C638.807,117.066,630.474,117.066,616.105,121.948C601.737,126.83,581.333,136.593,571.131,141.474L560.929,146.356"/><path marker-end="url(#my-svg_flowchart-v2-pointEnd)" style="" class="edge-thickness-normal edge-pattern-solid edge-thickness-normal edge-pattern-solid flowchart-link" id="L_agent_ServerB_0" d="M557.32,156.804L568.124,153.514C578.927,150.225,600.534,143.646,615.504,140.356C630.474,137.066,638.807,137.066,647.558,139.277C656.308,141.487,665.475,145.908,670.059,148.119L674.643,150.329"/><path marker-end="url(#my-svg_flowchart-v2-pointEnd)" style="" class="edge-thickness-normal edge-pattern-solid edge-thickness-normal edge-pattern-solid flowchart-link" id="L_ServerB_resourceB_0" d="M790.223,152.066L795.407,149.566C800.592,147.066,810.96,142.066,823.132,143.099C835.305,144.132,849.282,151.197,856.27,154.729L863.258,158.262"/><path marker-end="url(#my-svg_flowchart-v2-pointEnd)" style="" class="edge-thickness-normal edge-pattern-solid edge-thickness-normal edge-pattern-solid flowchart-link" id="L_resourceB_ServerB_0" d="M866.828,199.066L859.245,202.733C851.661,206.4,836.495,213.733,824.328,215.189C812.161,216.646,802.993,212.225,798.41,210.014L793.826,207.804"/><path marker-end="url(#my-svg_flowchart-v2-pointEnd)" style="" class="edge-thickness-normal edge-pattern-solid edge-thickness-normal edge-pattern-solid flowchart-link" id="L_ServerB_agent_0" d="M678.246,206.066L673.061,208.566C667.877,211.066,657.509,216.066,648.158,218.566C638.807,221.066,630.474,221.066,616.117,216.723C601.76,212.379,581.38,203.691,571.19,199.347L561,195.003"/><path marker-end="url(#my-svg_flowchart-v2-pointEnd)" style="" class="edge-thickness-normal edge-pattern-solid edge-thickness-normal edge-pattern-solid flowchart-link" id="L_agent_ServerC_0" d="M552.174,199.066L563.835,206.066C575.496,213.066,598.818,227.066,614.646,234.066C630.474,241.066,638.807,241.066,647.558,243.277C656.308,245.487,665.475,249.908,670.059,252.119L674.643,254.329"/><path marker-end="url(#my-svg_flowchart-v2-pointEnd)" style="" class="edge-thickness-normal edge-pattern-solid edge-thickness-normal edge-pattern-solid flowchart-link" id="L_ServerC_resourceC_0" d="M790.223,256.066L795.407,253.566C800.592,251.066,810.96,246.066,823.132,247.099C835.305,248.132,849.282,255.197,856.27,258.729L863.258,262.262"/><path marker-end="url(#my-svg_flowchart-v2-pointEnd)" style="" class="edge-thickness-normal edge-pattern-solid edge-thickness-normal edge-pattern-solid flowchart-link" id="L_resourceC_ServerC_0" d="M862.05,294.511L855.263,296.104C848.476,297.696,834.902,300.881,824.597,301.626C814.291,302.37,807.254,300.673,803.735,299.825L800.217,298.976"/><path marker-end="url(#my-svg_flowchart-v2-pointEnd)" style="" class="edge-thickness-normal edge-pattern-solid edge-thickness-normal edge-pattern-solid flowchart-link" id="L_ServerC_agent_0" d="M672.141,298.039L667.974,299.043C663.807,300.048,655.474,302.057,647.141,303.062C638.807,304.066,630.474,304.066,611.506,287.069C592.538,270.072,562.936,236.078,548.135,219.08L533.334,202.083"/></g><g class="edgeLabels"><g class="edgeLabel"><g transform="translate(0, 0)" class="label"><foreignObject height="0" width="0"><div style="display: table-cell; white-space: nowrap; line-height: 1.5; max-width: 200px; text-align: center;" class="labelBkg" xmlns="http://www.w3.org/1999/xhtml"><span class="edgeLabel"></span></div></foreignObject></g></g><g class="edgeLabel"><g transform="translate(0, 0)" class="label"><foreignObject height="0" width="0"><div style="display: table-cell; white-space: nowrap; line-height: 1.5; max-width: 200px; text-align: center;" class="labelBkg" xmlns="http://www.w3.org/1999/xhtml"><span class="edgeLabel"></span></div></foreignObject></g></g><g class="edgeLabel"><g transform="translate(0, 0)" class="label"><foreignObject height="0" width="0"><div style="display: table-cell; white-space: nowrap; line-height: 1.5; max-width: 200px; text-align: center;" class="labelBkg" xmlns="http://www.w3.org/1999/xhtml"><span class="edgeLabel"></span></div></foreignObject></g></g><g class="edgeLabel"><g transform="translate(0, 0)" class="label"><foreignObject height="0" width="0"><div style="display: table-cell; white-space: nowrap; line-height: 1.5; max-width: 200px; text-align: center;" class="labelBkg" xmlns="http://www.w3.org/1999/xhtml"><span class="edgeLabel"></span></div></foreignObject></g></g><g class="edgeLabel"><g transform="translate(0, 0)" class="label"><foreignObject height="0" width="0"><div style="display: table-cell; white-space: nowrap; line-height: 1.5; max-width: 200px; text-align: center;" class="labelBkg" xmlns="http://www.w3.org/1999/xhtml"><span class="edgeLabel"></span></div></foreignObject></g></g><g class="edgeLabel"><g transform="translate(0, 0)" class="label"><foreignObject height="0" width="0"><div style="display: table-cell; white-space: nowrap; line-height: 1.5; max-width: 200px; text-align: center;" class="labelBkg" xmlns="http://www.w3.org/1999/xhtml"><span class="edgeLabel"></span></div></foreignObject></g></g><g class="edgeLabel"><g transform="translate(0, 0)" class="label"><foreignObject height="0" width="0"><div style="display: table-cell; white-space: nowrap; line-height: 1.5; max-width: 200px; text-align: center;" class="labelBkg" xmlns="http://www.w3.org/1999/xhtml"><span class="edgeLabel"></span></div></foreignObject></g></g><g class="edgeLabel"><g transform="translate(0, 0)" class="label"><foreignObject height="0" width="0"><div style="display: table-cell; white-space: nowrap; line-height: 1.5; max-width: 200px; text-align: center;" class="labelBkg" xmlns="http://www.w3.org/1999/xhtml"><span class="edgeLabel"></span></div></foreignObject></g></g><g class="edgeLabel"><g transform="translate(0, 0)" class="label"><foreignObject height="0" width="0"><div style="display: table-cell; white-space: nowrap; line-height: 1.5; max-width: 200px; text-align: center;" class="labelBkg" xmlns="http://www.w3.org/1999/xhtml"><span class="edgeLabel"></span></div></foreignObject></g></g><g class="edgeLabel"><g transform="translate(0, 0)" class="label"><foreignObject height="0" width="0"><div style="display: table-cell; white-space: nowrap; line-height: 1.5; max-width: 200px; text-align: center;" class="labelBkg" xmlns="http://www.w3.org/1999/xhtml"><span class="edgeLabel"></span></div></foreignObject></g></g><g class="edgeLabel"><g transform="translate(0, 0)" class="label"><foreignObject height="0" width="0"><div style="display: table-cell; white-space: nowrap; line-height: 1.5; max-width: 200px; text-align: center;" class="labelBkg" xmlns="http://www.w3.org/1999/xhtml"><span class="edgeLabel"></span></div></foreignObject></g></g><g class="edgeLabel"><g transform="translate(0, 0)" class="label"><foreignObject height="0" width="0"><div style="display: table-cell; white-space: nowrap; line-height: 1.5; max-width: 200px; text-align: center;" class="labelBkg" xmlns="http://www.w3.org/1999/xhtml"><span class="edgeLabel"></span></div></foreignObject></g></g><g class="edgeLabel"><g transform="translate(0, 0)" class="label"><foreignObject height="0" width="0"><div style="display: table-cell; white-space: nowrap; line-height: 1.5; max-width: 200px; text-align: center;" class="labelBkg" xmlns="http://www.w3.org/1999/xhtml"><span class="edgeLabel"></span></div></foreignObject></g></g><g class="edgeLabel"><g transform="translate(0, 0)" class="label"><foreignObject height="0" width="0"><div style="display: table-cell; white-space: nowrap; line-height: 1.5; max-width: 200px; text-align: center;" class="labelBkg" xmlns="http://www.w3.org/1999/xhtml"><span class="edgeLabel"></span></div></foreignObject></g></g><g class="edgeLabel"><g transform="translate(0, 0)" class="label"><foreignObject height="0" width="0"><div style="display: table-cell; white-space: nowrap; line-height: 1.5; max-width: 200px; text-align: center;" class="labelBkg" xmlns="http://www.w3.org/1999/xhtml"><span class="edgeLabel"></span></div></foreignObject></g></g><g class="edgeLabel"><g transform="translate(0, 0)" class="label"><foreignObject height="0" width="0"><div style="display: table-cell; white-space: nowrap; line-height: 1.5; max-width: 200px; text-align: center;" class="labelBkg" xmlns="http://www.w3.org/1999/xhtml"><span class="edgeLabel"></span></div></foreignObject></g></g><g class="edgeLabel"><g transform="translate(0, 0)" class="label"><foreignObject height="0" width="0"><div style="display: table-cell; white-space: nowrap; line-height: 1.5; max-width: 200px; text-align: center;" class="labelBkg" xmlns="http://www.w3.org/1999/xhtml"><span class="edgeLabel"></span></div></foreignObject></g></g><g class="edgeLabel"><g transform="translate(0, 0)" class="label"><foreignObject height="0" width="0"><div style="display: table-cell; white-space: nowrap; line-height: 1.5; max-width: 200px; text-align: center;" class="labelBkg" xmlns="http://www.w3.org/1999/xhtml"><span class="edgeLabel"></span></div></foreignObject></g></g><g class="edgeLabel"><g transform="translate(0, 0)" class="label"><foreignObject height="0" width="0"><div style="display: table-cell; white-space: nowrap; line-height: 1.5; max-width: 200px; text-align: center;" class="labelBkg" xmlns="http://www.w3.org/1999/xhtml"><span class="edgeLabel"></span></div></foreignObject></g></g><g class="edgeLabel"><g transform="translate(0, 0)" class="label"><foreignObject height="0" width="0"><div style="display: table-cell; white-space: nowrap; line-height: 1.5; max-width: 200px; text-align: center;" class="labelBkg" xmlns="http://www.w3.org/1999/xhtml"><span class="edgeLabel"></span></div></foreignObject></g></g></g><g class="nodes"><g transform="translate(109.1015625, 439.06649017333984)" id="flowchart-fe-0" class="node default"><rect height="78" width="152.203125" y="-39" x="-76.1015625" ry="5" rx="5" style="" class="basic label-container"/><g transform="translate(-61.1015625, -24)" style="" class="label"><rect/><foreignObject height="48" width="122.203125"><div style="display: table-cell; white-space: nowrap; line-height: 1.5; max-width: 200px; text-align: center;" xmlns="http://www.w3.org/1999/xhtml"><span class="nodeLabel"><p>前端<br />Gradio/Streamlit</p></span></div></foreignObject></g></g><g transform="translate(313.7265625, 452.06649017333984)" id="flowchart-be-1" class="node default"><polygon transform="translate(-48.40625,31.5)" class="label-container" points="15.75,0 81.0625,0 96.8125,-31.5 81.0625,-63 15.75,-63 0,-31.5"/><g transform="translate(-25.15625, -24)" style="" class="label"><rect/><foreignObject height="48" width="50.3125"><div style="display: table-cell; white-space: nowrap; line-height: 1.5; max-width: 200px; text-align: center;" xmlns="http://www.w3.org/1999/xhtml"><span class="nodeLabel"><p>后端<br />Ollama</p></span></div></foreignObject></g></g><g transform="translate(507.1953125, 452.06649017333984)" id="flowchart-llm-2" class="node default"><rect height="78" width="179.890625" y="-39" x="-89.9453125" ry="5" rx="5" style="" class="basic label-container"/><g transform="translate(-74.9453125, -24)" style="" class="label"><rect/><foreignObject height="48" width="149.890625"><div style="display: table-cell; white-space: nowrap; line-height: 1.5; max-width: 200px; text-align: center;" xmlns="http://www.w3.org/1999/xhtml"><span class="nodeLabel"><p>LLM<br />DeepSeek R1/QWen3</p></span></div></foreignObject></g></g><g transform="translate(507.1953125, 172.06649017333984)" id="flowchart-agent-6" class="node default"><rect height="54" width="100.25" y="-27" x="-50.125" style="" class="basic label-container"/><g transform="translate(-20.125, -12)" style="" class="label"><rect/><foreignObject height="24" width="40.25"><div style="display: table-cell; white-space: nowrap; line-height: 1.5; max-width: 200px; text-align: center;" xmlns="http://www.w3.org/1999/xhtml"><span class="nodeLabel"><p>agent</p></span></div></foreignObject></g></g><g transform="translate(313.7265625, 172.06649017333984)" id="flowchart-client-7" class="node default"><rect height="54" width="107.046875" y="-27" x="-53.5234375" ry="5" rx="5" style="" class="basic label-container"/><g transform="translate(-38.5234375, -12)" style="" class="label"><rect/><foreignObject height="24" width="77.046875"><div style="display: table-cell; white-space: nowrap; line-height: 1.5; max-width: 200px; text-align: center;" xmlns="http://www.w3.org/1999/xhtml"><span class="nodeLabel"><p>MCP Client</p></span></div></foreignObject></g></g><g transform="translate(734.234375, 75.06649017333984)" id="flowchart-ServerA-13" class="node default"><rect height="54" width="123.171875" y="-27" x="-61.5859375" ry="5" rx="5" style="" class="basic label-container"/><g transform="translate(-46.5859375, -12)" style="" class="label"><rect/><foreignObject height="24" width="93.171875"><div style="display: table-cell; white-space: nowrap; line-height: 1.5; max-width: 200px; text-align: center;" xmlns="http://www.w3.org/1999/xhtml"><span class="nodeLabel"><p>MCP Server A</p></span></div></foreignObject></g></g><g transform="translate(905.328125, 75.06649017333984)" id="flowchart-resourceA-14" class="node default"><path transform="translate(-31.5, -32.066489361702125)" style="" class="basic label-container" d="M0,8.377659574468085 a31.5,8.377659574468085 0,0,0 63,0 a31.5,8.377659574468085 0,0,0 -63,0 l0,47.37765957446808 a31.5,8.377659574468085 0,0,0 63,0 l0,-47.37765957446808"/><g transform="translate(-24, -2)" style="" class="label"><rect/><foreignObject height="24" width="48"><div style="display: table-cell; white-space: nowrap; line-height: 1.5; max-width: 200px; text-align: center;" xmlns="http://www.w3.org/1999/xhtml"><span class="nodeLabel"><p>数据库</p></span></div></foreignObject></g></g><g transform="translate(734.234375, 179.06649017333984)" id="flowchart-ServerB-19" class="node default"><rect height="54" width="123.671875" y="-27" x="-61.8359375" ry="5" rx="5" style="" class="basic label-container"/><g transform="translate(-46.8359375, -12)" style="" class="label"><rect/><foreignObject height="24" width="93.671875"><div style="display: table-cell; white-space: nowrap; line-height: 1.5; max-width: 200px; text-align: center;" xmlns="http://www.w3.org/1999/xhtml"><span class="nodeLabel"><p>MCP Server B</p></span></div></foreignObject></g></g><g transform="translate(905.328125, 179.06649017333984)" id="flowchart-resourceB-20" class="node default"><polygon transform="translate(-39.5,19.5)" class="label-container" points="-19.5,0 79,0 98.5,-39 0,-39"/><g transform="translate(-32, -12)" style="" class="label"><rect/><foreignObject height="24" width="64"><div style="display: table-cell; white-space: nowrap; line-height: 1.5; max-width: 200px; text-align: center;" xmlns="http://www.w3.org/1999/xhtml"><span class="nodeLabel"><p>网络搜索</p></span></div></foreignObject></g></g><g transform="translate(734.234375, 283.06649017333984)" id="flowchart-ServerC-25" class="node default"><rect height="54" width="124.1875" y="-27" x="-62.09375" ry="5" rx="5" style="" class="basic label-container"/><g transform="translate(-47.09375, -12)" style="" class="label"><rect/><foreignObject height="24" width="94.1875"><div style="display: table-cell; white-space: nowrap; line-height: 1.5; max-width: 200px; text-align: center;" xmlns="http://www.w3.org/1999/xhtml"><span class="nodeLabel"><p>MCP Server C</p></span></div></foreignObject></g></g><g transform="translate(905.328125, 283.06649017333984)" id="flowchart-resourceC-26" class="node default"><polygon transform="translate(-39.5,19.5)" class="label-container" points="0,0 98.5,0 79,-39 -19.5,-39"/><g transform="translate(-32, -12)" style="" class="label"><rect/><foreignObject height="24" width="64"><div style="display: table-cell; white-space: nowrap; line-height: 1.5; max-width: 200px; text-align: center;" xmlns="http://www.w3.org/1999/xhtml"><span class="nodeLabel"><p>文件解析</p></span></div></foreignObject></g></g></g></g></g></svg>