<?xml version="1.0" encoding="us-ascii" standalone="no"?><svg xmlns="http://www.w3.org/2000/svg" xmlns:xlink="http://www.w3.org/1999/xlink" contentStyleType="text/css" height="98px" preserveAspectRatio="none" style="width:642px;height:98px;background:#FFFFFF;" version="1.1" viewBox="0 0 642 98" width="642px" zoomAndPan="magnify"><defs/><g><rect fill="#FA8072" height="35.6719" style="stroke:none;stroke-width:1.0;" width="21.3333" x="512" y="31"/><line style="stroke:#C0C0C0;stroke-width:1.0;" x1="0" x2="0" y1="0" y2="16"/><line style="stroke:#C0C0C0;stroke-width:1.0;" x1="439.4667" x2="439.4667" y1="0" y2="16"/><text fill="#000000" font-family="sans-serif" font-size="12" font-weight="bold" lengthAdjust="spacing" textLength="28" x="205.7333" y="12.457">2020</text><text fill="#000000" font-family="sans-serif" font-size="12" font-weight="bold" lengthAdjust="spacing" textLength="28" x="525.7333" y="12.457">2021</text><line style="stroke:#C0C0C0;stroke-width:1.0;" x1="640" x2="640" y1="0" y2="16"/><line style="stroke:#C0C0C0;stroke-width:1.0;" x1="0" x2="0" y1="16" y2="30"/><line style="stroke:#C0C0C0;stroke-width:1.0;" x1="46.9333" x2="46.9333" y1="16" y2="30"/><text fill="#000000" font-family="sans-serif" font-size="10" lengthAdjust="spacing" textLength="19" x="13.9667" y="26.3809">Sep</text><line style="stroke:#C0C0C0;stroke-width:1.0;" x1="179.2" x2="179.2" y1="16" y2="30"/><text fill="#000000" font-family="sans-serif" font-size="10" lengthAdjust="spacing" textLength="38" x="94.0667" y="26.3809">October</text><line style="stroke:#C0C0C0;stroke-width:1.0;" x1="307.2" x2="307.2" y1="16" y2="30"/><text fill="#000000" font-family="sans-serif" font-size="10" lengthAdjust="spacing" textLength="48" x="219.2" y="26.3809">November</text><line style="stroke:#C0C0C0;stroke-width:1.0;" x1="439.4667" x2="439.4667" y1="16" y2="30"/><text fill="#000000" font-family="sans-serif" font-size="10" lengthAdjust="spacing" textLength="49" x="348.8333" y="26.3809">December</text><line style="stroke:#C0C0C0;stroke-width:1.0;" x1="571.7333" x2="571.7333" y1="16" y2="30"/><text fill="#000000" font-family="sans-serif" font-size="10" lengthAdjust="spacing" textLength="37" x="487.1" y="26.3809">January</text><text fill="#000000" font-family="sans-serif" font-size="10" lengthAdjust="spacing" textLength="41" x="585.3667" y="26.3809">February</text><line style="stroke:#C0C0C0;stroke-width:1.0;" x1="640" x2="640" y1="16" y2="30"/><line style="stroke:#C0C0C0;stroke-width:1.0;" x1="0" x2="640" y1="0" y2="0"/><line style="stroke:#C0C0C0;stroke-width:1.0;" x1="0" x2="640" y1="16" y2="16"/><line style="stroke:#C0C0C0;stroke-width:1.0;" x1="0" x2="640" y1="30" y2="30"/><line style="stroke:#181818;stroke-width:1.5;" x1="545.6667" x2="545.6667" y1="46.8359" y2="57.7539"/><line style="stroke:#181818;stroke-width:1.5;" x1="545.6667" x2="553.6667" y1="57.7539" y2="57.7539"/><polygon fill="#181818" points="549.6667,53.7539,549.6667,57.7539,549.6667,61.7539,553.6667,57.7539" style="stroke:#181818;stroke-width:1.5;"/><rect fill="#E6E6FA" height="13.8359" style="stroke:none;stroke-width:1.0;" width="550.6667" x="2" y="33"/><line style="stroke:#ADD8E6;stroke-width:1.0;" x1="2" x2="552.6667" y1="33" y2="33"/><line style="stroke:#ADD8E6;stroke-width:1.0;" x1="2" x2="552.6667" y1="46.8359" y2="46.8359"/><line style="stroke:#ADD8E6;stroke-width:1.0;" x1="2" x2="2" y1="33" y2="46.8359"/><line style="stroke:#ADD8E6;stroke-width:1.0;" x1="552.6667" x2="552.6667" y1="33" y2="46.8359"/><rect fill="#E2E2F0" height="13.8359" style="stroke:none;stroke-width:1.0;" width="81.3333" x="556.6667" y="50.8359"/><line style="stroke:#181818;stroke-width:1.0;" x1="556.6667" x2="638" y1="50.8359" y2="50.8359"/><line style="stroke:#181818;stroke-width:1.0;" x1="556.6667" x2="638" y1="64.6719" y2="64.6719"/><line style="stroke:#181818;stroke-width:1.0;" x1="556.6667" x2="556.6667" y1="50.8359" y2="64.6719"/><line style="stroke:#181818;stroke-width:1.0;" x1="638" x2="638" y1="50.8359" y2="64.6719"/><text fill="#000000" font-family="sans-serif" font-size="11" lengthAdjust="spacing" textLength="81" x="6" y="44.4189">Prototype design</text><text fill="#000000" font-family="sans-serif" font-size="11" lengthAdjust="spacing" textLength="35" x="560.6667" y="62.2549">Testing</text><line style="stroke:#C0C0C0;stroke-width:1.0;" x1="0" x2="0" y1="66.6719" y2="80.6719"/><line style="stroke:#C0C0C0;stroke-width:1.0;" x1="46.9333" x2="46.9333" y1="66.6719" y2="80.6719"/><text fill="#000000" font-family="sans-serif" font-size="10" lengthAdjust="spacing" textLength="19" x="13.9667" y="77.0527">Sep</text><line style="stroke:#C0C0C0;stroke-width:1.0;" x1="179.2" x2="179.2" y1="66.6719" y2="80.6719"/><text fill="#000000" font-family="sans-serif" font-size="10" lengthAdjust="spacing" textLength="38" x="94.0667" y="77.0527">October</text><line style="stroke:#C0C0C0;stroke-width:1.0;" x1="307.2" x2="307.2" y1="66.6719" y2="80.6719"/><text fill="#000000" font-family="sans-serif" font-size="10" lengthAdjust="spacing" textLength="48" x="219.2" y="77.0527">November</text><line style="stroke:#C0C0C0;stroke-width:1.0;" x1="439.4667" x2="439.4667" y1="66.6719" y2="80.6719"/><text fill="#000000" font-family="sans-serif" font-size="10" lengthAdjust="spacing" textLength="49" x="348.8333" y="77.0527">December</text><line style="stroke:#C0C0C0;stroke-width:1.0;" x1="571.7333" x2="571.7333" y1="66.6719" y2="80.6719"/><text fill="#000000" font-family="sans-serif" font-size="10" lengthAdjust="spacing" textLength="37" x="487.1" y="77.0527">January</text><text fill="#000000" font-family="sans-serif" font-size="10" lengthAdjust="spacing" textLength="41" x="585.3667" y="77.0527">February</text><line style="stroke:#C0C0C0;stroke-width:1.0;" x1="640" x2="640" y1="66.6719" y2="80.6719"/><line style="stroke:#C0C0C0;stroke-width:1.0;" x1="0" x2="0" y1="80.6719" y2="96.6719"/><line style="stroke:#C0C0C0;stroke-width:1.0;" x1="439.4667" x2="439.4667" y1="80.6719" y2="96.6719"/><text fill="#000000" font-family="sans-serif" font-size="12" font-weight="bold" lengthAdjust="spacing" textLength="28" x="205.7333" y="93.1289">2020</text><text fill="#000000" font-family="sans-serif" font-size="12" font-weight="bold" lengthAdjust="spacing" textLength="28" x="525.7333" y="93.1289">2021</text><line style="stroke:#C0C0C0;stroke-width:1.0;" x1="640" x2="640" y1="80.6719" y2="96.6719"/><line style="stroke:#C0C0C0;stroke-width:1.0;" x1="0" x2="640" y1="66.6719" y2="66.6719"/><line style="stroke:#C0C0C0;stroke-width:1.0;" x1="0" x2="640" y1="80.6719" y2="80.6719"/><line style="stroke:#C0C0C0;stroke-width:1.0;" x1="0" x2="640" y1="96.6719" y2="96.6719"/><!--SRC=[VP11Jzj048Nl-olUhN0ms8v1KGuL44YbuAWH2LoY73RsnDdMtartnqRkh-z02D0BfzNEU_FDqxiAh3rNsZAhlJUMGw5hmZFHxxh7N-SQP2AuNrIyIOsplAjxDJyCyGe8u1qXZNa7jqMWFLEp8I-JD5OhiRBZVayeAPZAhg43LilhnNsoXgS_hV4Ka0nYbBeFwgYOWCBLpbC9Ov7hZcn9_ZmtrOvlwfR4I86DhJv1qlyPqVTtZr8I9edY94g6O8VZBqsXFS7gHkwixcpvxULiqnXcelNNIv_Y1LrBCr1N4l9GfvhNyZxESdJaWn4nEPFzx6nmCl464zeWkKGy66NnABx0UB5ymMUdwkJ7FEzI1DVwGYepWRtPj2o4KpNLdSP3QzaqDCBFFTdfxVrnW3lR6UziGvRLz6dsORZCeXl3M92NB7YQgLlQwhPcsIXSAVMCyBYSH4ELQrkrkX8sMJLsmlMzQ8j_]--></g></svg>