<?xml version="1.0" encoding="UTF-8" standalone="no"?><svg xmlns="http://www.w3.org/2000/svg" xmlns:xlink="http://www.w3.org/1999/xlink" contentScriptType="application/ecmascript" contentStyleType="text/css" height="350px" preserveAspectRatio="none" style="width:227px;height:350px;" version="1.1" viewBox="0 0 227 350" width="227px" zoomAndPan="magnify"><defs><filter height="300%" id="f1axhkt5s1rt0h" width="300%" x="-1" y="-1"><feGaussianBlur result="blurOut" stdDeviation="2.0"/><feColorMatrix in="blurOut" result="blurOut2" type="matrix" values="0 0 0 0 0 0 0 0 0 0 0 0 0 0 0 0 0 0 .4 0"/><feOffset dx="4.0" dy="4.0" in="blurOut2" result="blurOut3"/><feBlend in="SourceGraphic" in2="blurOut3" mode="normal"/></filter></defs><g><rect fill="#FEFECE" filter="url(#f1axhkt5s1rt0h)" height="33.9688" rx="12.5" ry="12.5" style="stroke:#A80036;stroke-width:1.5;" width="68" x="11" y="64.9688"/><text fill="#000000" font-family="sans-serif" font-size="12" lengthAdjust="spacing" textLength="48" x="21" y="86.1074">人机交互</text><rect fill="#FEFECE" filter="url(#f1axhkt5s1rt0h)" height="33.9688" rx="12.5" ry="12.5" style="stroke:#A80036;stroke-width:1.5;" width="68" x="11" y="192.9063"/><text fill="#000000" font-family="sans-serif" font-size="12" lengthAdjust="spacing" textLength="48" x="21" y="214.0449">仿真环境</text><rect fill="#FEFECE" filter="url(#f1axhkt5s1rt0h)" height="33.9688" rx="12.5" ry="12.5" style="stroke:#A80036;stroke-width:1.5;" width="56" x="17" y="118.9375"/><text fill="#000000" font-family="sans-serif" font-size="12" lengthAdjust="spacing" textLength="36" x="27" y="140.0762">控制器</text><polygon fill="#FEFECE" filter="url(#f1axhkt5s1rt0h)" points="45,251.8906,45,251.8906,57,263.8906,45,275.8906,45,275.8906,33,263.8906,45,251.8906" style="stroke:#A80036;stroke-width:1.5;"/><rect fill="#FEFECE" filter="url(#f1axhkt5s1rt0h)" height="33.9688" rx="12.5" ry="12.5" style="stroke:#A80036;stroke-width:1.5;" width="96" x="93" y="187.9219"/><text fill="#000000" font-family="sans-serif" font-size="12" lengthAdjust="spacing" textLength="72" x="107" y="209.0605">参数优化模块</text><rect fill="#FEFECE" filter="url(#f1axhkt5s1rt0h)" height="33.9688" rx="12.5" ry="12.5" style="stroke:#A80036;stroke-width:1.5;" width="56" x="17" y="11"/><text fill="#000000" font-family="sans-serif" font-size="12" lengthAdjust="spacing" textLength="36" x="27" y="32.1387">操作者</text><line style="stroke:#A80036;stroke-width:1.5;" x1="45" x2="45" y1="152.9063" y2="192.9063"/><polygon fill="#A80036" points="41,182.9063,45,192.9063,49,182.9063,45,186.9063" style="stroke:#A80036;stroke-width:1.0;"/><line style="stroke:#A80036;stroke-width:1.5;" x1="57" x2="141" y1="263.8906" y2="263.8906"/><line style="stroke:#A80036;stroke-width:1.5;" x1="141" x2="141" y1="221.8906" y2="263.8906"/><polygon fill="#A80036" points="137,231.8906,141,221.8906,145,231.8906,141,227.8906" style="stroke:#A80036;stroke-width:1.0;"/><line style="stroke:#A80036;stroke-width:1.5;" x1="141" x2="141" y1="135.9219" y2="187.9219"/><line style="stroke:#A80036;stroke-width:1.5;" x1="141" x2="73" y1="135.9219" y2="135.9219"/><polygon fill="#A80036" points="83,131.9219,73,135.9219,83,139.9219,79,135.9219" style="stroke:#A80036;stroke-width:1.0;"/><line style="stroke:#A80036;stroke-width:1.5;" x1="45" x2="45" y1="226.875" y2="251.8906"/><polygon fill="#A80036" points="41,241.8906,45,251.8906,49,241.8906,45,245.8906" style="stroke:#A80036;stroke-width:1.0;"/><line style="stroke:#A80036;stroke-width:1.5;" x1="45" x2="45" y1="98.9375" y2="118.9375"/><polygon fill="#A80036" points="41,108.9375,45,118.9375,49,108.9375,45,112.9375" style="stroke:#A80036;stroke-width:1.0;"/><line style="stroke:#A80036;stroke-width:1.5;" x1="45" x2="45" y1="44.9688" y2="64.9688"/><polygon fill="#A80036" points="41,54.9688,45,64.9688,49,54.9688,45,58.9688" style="stroke:#A80036;stroke-width:1.0;"/><line style="stroke:#A80036;stroke-width:1.5;" x1="45" x2="45" y1="275.8906" y2="323.8906"/><line style="stroke:#A80036;stroke-width:1.5;" x1="45" x2="201" y1="323.8906" y2="323.8906"/><polygon fill="#A80036" points="197,172.9063,201,162.9063,205,172.9063,201,168.9063" style="stroke:#A80036;stroke-width:1.5;"/><line style="stroke:#A80036;stroke-width:1.5;" x1="201" x2="201" y1="27.9844" y2="323.8906"/><line style="stroke:#A80036;stroke-width:1.5;" x1="201" x2="73" y1="27.9844" y2="27.9844"/><polygon fill="#A80036" points="83,23.9844,73,27.9844,83,31.9844,79,27.9844" style="stroke:#A80036;stroke-width:1.0;"/><text fill="#000000" font-family="sans-serif" font-size="14" lengthAdjust="spacing" textLength="23" x="101" y="336.8857">图1</text><!--MD5=[9588f2c5a4ffacbcada2e1ddfe912f70]
@startuml
caption 图1

repeat :操作者;
:人机交互;
repeat :控制器;
:仿真环境;
backward: 参数优化模块;
@enduml

PlantUML version 1.2021.00(Sun Jan 10 18:25:05 CST 2021)
(GPL source distribution)
Java Runtime: OpenJDK Runtime Environment
JVM: OpenJDK 64-Bit Server VM
Default Encoding: UTF-8
Language: en
Country: GB
--></g></svg>